<svg xmlns="http://www.w3.org/2000/svg" viewBox="0 0 1500 1500" version="1.1"><path d="M 461.5 283.9 C 450.2 286.9, 440.9 296.5, 435.1 311.2 C 434.3 313.2, 433.3 314, 431.5 314 C 424.1 314, 408.9 323.1, 399.4 333.2 C 378.2 355.9, 372.2 387.4, 382.0 424.8 C 383.7 431.0, 385 436.2, 385 436.4 C 385 436.7, 380.8 438.8, 375.6 441.3 C 361.9 447.9, 353.3 453.9, 343.8 463.8 C 334.9 473.0, 329.3 481.8, 325.2 492.9 C 322.1 501.2, 321.1 518.7, 323.0 529.3 C 325.7 544.4, 334.6 563.8, 347.6 583.0 C 351.8 589.3, 356.8 596.8, 358.7 599.5 C 366.3 610.7, 368.0 618.2, 364.6 624.7 C 360.1 633.6, 347.0 632.7, 338.7 622.9 C 336.8 620.8, 335.0 619, 334.5 619 C 333.2 619, 334.6 626.3, 337.0 631.3 C 340.7 639.1, 348.2 646.5, 356.6 650.6 L 364.0 654.3 360.9 657.8 C 353.5 666.2, 350.9 680.8, 354.9 691.6 C 357.4 698.2, 364.7 706.4, 371.7 710.5 C 378.4 714.5, 378.7 714.2, 378.2 705.1 C 377.1 686.0, 386.1 672.1, 412.5 651.7 C 443.7 627.6, 453.3 612.6, 451.7 590.5 C 450.5 575.3, 442.4 556.0, 428.3 534.5 C 423.3 527.1, 415.5 511.3, 413.2 504.5 C 411.1 497.9, 408.5 484.2, 409.3 483.4 C 409.5 483.1, 412.8 486.1, 416.6 490.1 C 430.6 504.6, 440.9 511.0, 456.4 515.0 C 478.1 520.5, 500.5 517.8, 521.5 507.2 C 534.3 500.6, 544.5 491.6, 554.3 478.1 C 560.9 469.0, 560.8 469.1, 564.5 476.1 C 565.9 478.6, 565.7 479.1, 560.0 486.1 C 550.5 497.8, 542.4 516.3, 538.5 535 C 535.8 548.0, 534.8 562.3, 534.0 603 C 533.1 646.4, 532.3 656.2, 527.4 681 C 521.5 710.7, 511.1 738.8, 497.6 761.4 C 490.6 773.2, 478.2 800.4, 469.8 822.5 C 455.8 859.5, 450.9 877.3, 440.5 930.7 C 433.1 968.7, 428.0 986.1, 418.4 1006.0 C 407.1 1029.6, 394.3 1046.6, 357.8 1086.7 C 343.1 1102.9, 337.1 1109.8, 329.3 1119.4 C 327.8 1121.2, 325.5 1121.3, 248.1 1120.6 C 188.2 1120.0, 168.8 1120.1, 169.6 1121.0 C 171.2 1122.6, 195.1 1128.6, 212 1131.7 C 223.3 1133.7, 231.0 1134.3, 247 1134.7 C 258.3 1135.0, 267.9 1135.6, 268.4 1136.0 C 268.8 1136.5, 265.2 1138.0, 260.4 1139.5 C 255.5 1141.0, 250.4 1142.5, 249 1143.0 C 247.6 1143.5, 240.9 1145.5, 234 1147.5 C 227.1 1149.6, 221.1 1151.7, 220.5 1152.3 C 219.8 1152.9, 222.4 1153.0, 228 1152.6 C 243.1 1151.5, 282.9 1150.1, 307 1149.8 L 330.5 1149.5 331 1154.4 C 331.5 1159.2, 331.8 1159.6, 336.9 1162.0 C 338.0 1162.5, 338.3 1164.1, 338.1 1167.6 C 337.9 1171.4, 338.4 1173.2, 340.0 1175.3 C 344.6 1181.1, 351.1 1177.8, 368.9 1160.5 L 380.7 1149.1 405.6 1149.6 C 438.1 1150.2, 440.3 1150.5, 444.3 1153.9 C 446.1 1155.5, 448.5 1157.2, 449.7 1157.9 C 454.4 1160.4, 462.7 1158.3, 465.0 1154.0 C 465.9 1152.2, 467.1 1152, 474.8 1152 C 486.9 1152, 549.9 1155.2, 594 1158.0 C 602.5 1158.5, 620.1 1159.7, 633 1160.5 C 645.9 1161.3, 673.4 1163.1, 694 1164.5 C 730.3 1166.9, 737.6 1167.4, 788 1170.5 C 963.0 1181.3, 1088.0 1181.8, 1202 1171.9 C 1239.9 1168.7, 1259 1166.4, 1259 1165.1 C 1259 1164.7, 1253.0 1163.1, 1245.8 1161.6 C 1228.9 1158.1, 1225 1157.1, 1225 1156.2 C 1225 1155.8, 1237.0 1154.2, 1251.8 1152.6 C 1266.5 1151.0, 1289.5 1148.6, 1302.9 1147.1 C 1316.6 1145.7, 1327.5 1144.0, 1327.7 1143.5 C 1328.4 1141.2, 1260.4 1133.9, 1210.4 1130.9 C 1199.5 1130.2, 1189.5 1129.3, 1188.2 1128.8 L 1185.9 1128.0 1189.3 1123.7 C 1197.4 1113.8, 1200.4 1103.9, 1200.4 1087.5 C 1200.5 1076.8, 1200.2 1074.9, 1197.8 1069.4 C 1189.8 1050.5, 1172.8 1034.9, 1105.5 984.5 C 1090.7 973.4, 1072.7 960.2, 1065.5 955.3 C 1047.4 942.8, 1019.9 924.3, 1011.5 919.1 C 1007.6 916.7, 1002.5 913.3, 1000 911.7 C 997.5 910.0, 993.5 907.5, 991 906.0 C 988.5 904.5, 979.3 898.9, 970.5 893.5 C 961.7 888.2, 953.2 883.0, 951.7 882.1 C 950.1 881.2, 944.7 878.1, 939.7 875.1 C 934.6 872.1, 923.6 866.6, 915.2 862.9 C 898.4 855.4, 892.3 851.5, 888.7 846.1 C 885.0 840.5, 884.0 836.7, 881.4 818 C 880.1 808.4, 878.3 798.7, 877.5 796.5 C 876.8 794.3, 875.6 786.4, 875.0 779 C 874.4 771.6, 873.5 761.7, 872.9 757 C 872.3 752.3, 871.6 746.6, 871.4 744.2 C 870.6 736.2, 865.9 712.7, 862.4 698.7 C 851.2 654.3, 836.3 622.8, 811.9 592.5 C 805.9 585.0, 802.3 579.1, 797.4 569 C 783.8 540.6, 778.9 532.7, 768.7 522.9 C 762.7 517.0, 759.5 514.8, 749.5 510.0 C 742.9 506.8, 732.4 502.6, 726.2 500.6 C 720.1 498.6, 709.9 495.4, 703.8 493.4 C 681.9 486.5, 667.6 480.5, 662.5 476.0 C 660.2 474.0, 656.2 471.1, 653.6 469.4 C 648.6 466.3, 640.8 455.8, 629.6 436.8 C 623.5 426.4, 612.6 404.1, 611.5 400 C 611.1 398.1, 611.9 396.3, 615.1 392 C 620.1 385.3, 624.9 376.1, 628.5 365.8 C 630.7 359.6, 631.2 356.8, 630.8 352.0 C 630.2 343.7, 628.1 341.1, 619.5 338.3 C 615.0 336.8, 611.4 334.9, 609.0 332.5 C 606.5 330.0, 604.5 329, 602.3 329 C 600.4 329, 598.0 328.0, 596.2 326.5 C 594.5 325.1, 592.3 324, 591.2 324 C 587.7 324, 586.3 321.5, 585.7 314.0 C 584.7 301.8, 581.5 299.5, 569.6 302.4 C 561.1 304.5, 548.7 305.5, 543.6 304.6 C 541.6 304.2, 536.3 301.4, 531.8 298.3 C 519.6 290.0, 515.1 288.6, 499.5 288.4 C 488.9 288.2, 485.7 287.8, 482.0 286.1 C 476.9 283.9, 466.1 282.7, 461.5 283.9 M 494.8 290.7 C 491.3 291.2, 491.3 292.2, 494.6 296.5 C 497.5 300.3, 500 307.7, 500 312.5 C 500 318.1, 497.1 325.7, 492.9 331.0 L 488.8 336.2 494.8 341.5 C 498.1 344.5, 502.8 350.0, 505.2 353.7 C 515.7 369.6, 518.8 374.8, 518.3 375.4 C 517.9 375.7, 516.4 376, 514.8 376 C 510.8 376, 497.4 380.7, 492.8 383.8 C 482.2 390.7, 481.8 403.5, 491.9 410.8 C 499.5 416.3, 513.4 417.4, 521.7 413.1 C 526.7 410.6, 529 406.5, 529 400.1 L 529 395 534.8 395 C 545.8 395, 557.4 399.3, 564.3 405.9 C 570.3 411.5, 572.3 416.2, 572.8 425.8 C 573.5 438.1, 571.1 448.2, 564.3 461.2 L 561.9 466.0 565.2 471.0 C 567.0 473.7, 568.8 476, 569.2 476 C 569.7 476, 572.1 474.5, 574.7 472.6 C 580.8 468.3, 588.6 464.4, 596.4 461.8 C 605.0 458.9, 624.6 458.7, 634.3 461.4 C 638.0 462.4, 641.3 463.0, 641.6 462.7 C 641.9 462.4, 639.0 457.3, 635.1 451.4 C 631.2 445.5, 623.6 432.1, 618.4 421.6 C 613.1 411.1, 608.4 402.4, 608.0 402.2 C 607.5 402.0, 604.5 403.9, 601.3 406.4 C 595.1 411.3, 594 411.8, 594 409.7 C 594 408.9, 596.7 406.2, 599.9 403.7 C 607.8 397.6, 614.9 388.6, 620.4 377.5 C 625.9 366.7, 628.0 360.1, 628.0 353.8 C 628.0 345.5, 625.6 342.8, 615.7 340.2 C 613.6 339.6, 610.1 337.5, 607.9 335.5 C 602.0 330.2, 600.0 330.9, 597.3 339.4 C 594.8 346.9, 593.2 349.6, 591.8 348.2 C 591.3 347.7, 591.7 345.4, 592.8 342.9 C 597.4 332.3, 596.5 327.9, 589.8 326.5 C 584.9 325.4, 584.2 324.5, 583.5 317.7 C 582.1 304.1, 580.5 302.7, 569.4 305.5 C 561.1 307.6, 549.8 308.5, 543.7 307.6 C 540.4 307.1, 536.4 305.1, 529.7 300.6 C 523.7 296.6, 518.2 293.8, 514.4 292.8 C 507.9 291.0, 499.0 290.1, 494.8 290.7 M 512.1 299.8 C 510.3 303.1, 508.0 310.4, 508.0 312.8 C 508.0 316.7, 510.3 314.8, 511.5 309.9 C 512.2 307.5, 513.4 304.1, 514.3 302.4 C 515.8 299.4, 515.7 298, 513.9 298 C 513.4 298, 512.6 298.8, 512.1 299.8 M 539.2 313.5 C 540.4 316.2, 539.0 319, 536.4 319 C 535.6 319, 535 319.4, 535 320 C 535 321.3, 537.6 321.3, 540.1 320.0 C 542.3 318.8, 542.7 314.1, 540.8 312.2 C 538.8 310.2, 538.0 310.8, 539.2 313.5 M 604.1 463.2 C 595.3 464.7, 586.6 468.3, 578.0 474.1 C 561.1 485.4, 551.1 500.6, 544.1 525.5 C 538.8 544.7, 538.0 553.5, 537.0 601.5 C 536.2 640.6, 535.8 647.4, 533.6 662.5 C 527.7 701.8, 517.1 733.3, 499.1 764.8 C 492.3 776.7, 474.9 815.3, 471.0 827 C 470.5 828.4, 468.0 835.6, 465.5 843 C 457.1 867.4, 452.4 885.9, 444.0 928.5 C 437.4 962.2, 433.3 977.4, 426.2 995.1 C 413.3 1027.3, 405.2 1038.5, 354.3 1094.9 C 336.7 1114.4, 330.3 1123.0, 331.6 1125.2 C 332.8 1127.1, 335.9 1125.8, 338.8 1122.1 C 343.1 1116.7, 352.7 1108.7, 353.9 1109.5 C 354.5 1109.8, 350.3 1114.7, 344.6 1120.4 C 334.7 1130.4, 330.8 1136.3, 332.5 1139.0 C 334.0 1141.4, 336.8 1139.3, 349.0 1127 C 360.8 1115.0, 364 1112.5, 364 1114.9 C 364 1115.4, 358.1 1121.8, 350.9 1129.1 C 343.6 1136.5, 337.1 1143.9, 336.3 1145.9 C 333.4 1152.6, 333.1 1154.7, 334.6 1156.9 C 335.9 1158.7, 336.4 1158.8, 338.9 1157.7 C 340.5 1157.1, 344.5 1153.1, 347.7 1149 C 358.5 1135.4, 379 1116.1, 379 1119.6 C 379 1119.9, 373.9 1125.2, 367.7 1131.3 C 354.9 1144.0, 344.6 1156.3, 342.5 1161.4 C 339.7 1168.0, 341.1 1175, 345.1 1175 C 350.0 1175, 367.0 1160.0, 380.8 1143.5 C 395.6 1125.7, 398.6 1122.7, 406.5 1117.0 C 417.6 1109.0, 421.1 1107.4, 425.2 1108.6 C 429.3 1109.8, 431.5 1113.9, 436.5 1130 C 442.5 1148.9, 447.6 1156.0, 455.1 1156.0 C 462.9 1155.9, 464.8 1151.1, 461.9 1138.7 C 459.4 1128.0, 459.7 1120.5, 463.1 1106.5 C 465.0 1098.3, 465.2 1096.3, 464.4 1084 C 462.2 1049.9, 463.8 1023.6, 469.5 1001 C 474.4 981.4, 484.4 950.8, 491.7 932.5 C 498.6 915.4, 503.0 905.2, 507.5 895.5 C 522.9 863.0, 526.9 855.6, 541.7 833.4 C 552.8 816.6, 557 809.5, 557 807.3 C 557 801.9, 553.1 789.0, 549.4 781.9 C 546.3 776.1, 545.9 774.7, 547.1 773.9 C 547.9 773.4, 549.2 773.0, 550.1 773.0 C 555.6 773.0, 561.7 761.4, 570.5 734.7 C 574.6 722.2, 584.0 694.7, 586.0 689.5 C 596.4 661.9, 597.6 658.8, 604.7 642.7 C 612.7 624.3, 618.8 608.5, 623.4 594.3 C 627.3 582.5, 632 564.6, 632 561.8 C 632 560.8, 632.5 560, 633 560 C 635.7 560, 633.4 590.9, 629.6 605.5 C 627.6 612.9, 627.6 613, 629.8 613 C 632.0 613, 644.4 605.5, 650.6 600.4 C 660.3 592.4, 669.4 578.7, 674.3 564.6 C 677.2 556.1, 677.4 554.6, 677.5 541.5 C 677.5 524.7, 675.9 517.5, 669.2 504.8 C 663.3 493.5, 656.8 485.5, 648.2 479.1 C 640.6 473.5, 628.7 467.6, 622.8 466.5 C 620.1 466.0, 619 465.3, 619 464.0 C 619 462.6, 618.1 462.3, 613.8 462.4 C 610.9 462.4, 606.5 462.8, 604.1 463.2 M 663 480.6 C 663 481.9, 670.8 489.5, 671.5 488.9 C 671.7 488.6, 669.9 486.4, 667.5 484.0 C 665.0 481.6, 663 480.0, 663 480.6 M 675 487.6 C 675 487.9, 676.3 490.0, 677.9 492.3 C 687.2 505.9, 692.0 521.9, 692.0 539.8 C 692.0 552.8, 689.9 563.3, 685.0 573.6 C 675.9 593.3, 658.2 609.6, 637.4 617.5 C 631.3 619.9, 630.1 620.7, 628.2 624.4 C 625.4 629.9, 620.3 641.3, 617.9 647.6 L 616.0 652.7 637.8 674.6 C 656.9 693.7, 665.1 702.8, 673.6 714.6 L 675.7 717.5 682.6 714.2 C 703.4 704.1, 736.7 682.0, 760.5 662.5 C 783.5 643.6, 817 609.4, 817 604.9 C 817 604.1, 815.2 601.5, 813.0 599.1 L 809.0 594.7 802.2 595.3 C 798.5 595.7, 794.2 596.2, 792.6 596.6 C 789.8 597.3, 789.7 597.2, 790.4 594.4 C 792.0 587.0, 793.2 573.0, 792.6 568.8 C 791.7 562.6, 781.5 542.8, 774.5 533.5 C 768.4 525.4, 763.2 520.8, 754.4 515.6 C 747.5 511.6, 732.4 505.5, 719.5 501.6 C 706.0 497.5, 683.9 489.9, 680.8 488.4 C 678.0 487.0, 675 486.6, 675 487.6 M 816.2 613.9 C 812.0 620.6, 795.6 642.2, 784.5 655.5 C 768.5 674.7, 737.5 702.9, 715.3 718.4 C 709.1 722.8, 708.4 723.5, 710.5 723.8 C 712.9 724.1, 720.8 721.9, 731.3 718.0 C 734.5 716.8, 737.4 716.0, 737.6 716.3 C 738.4 717.1, 731.2 727.7, 727.2 731.7 C 723.2 735.8, 712.9 744, 711.9 744 C 711.4 744, 711 744.4, 711 744.9 C 711 745.3, 713.3 745.3, 716.2 744.9 C 719.0 744.4, 721.7 744.3, 722.1 744.6 C 722.6 744.9, 720.9 748.0, 718.4 751.6 C 715.9 755.2, 714.1 758.7, 714.4 759.5 C 715.6 762.8, 740.4 764.8, 753.8 762.7 C 756.7 762.2, 759 762.2, 759 762.7 C 759 764.9, 738.7 771.7, 727.5 773.2 C 722.8 773.9, 719 774.7, 719 775.0 C 719 776.0, 738.3 776.8, 753 776.5 C 786.7 775.8, 799.2 776.0, 811.5 777.5 C 825.5 779.2, 854.3 786.0, 862.8 789.6 C 869.8 792.6, 872.1 793.0, 872.7 791.4 C 873.3 789.9, 870.6 757.8, 869.5 753 C 869.1 751.6, 868.7 748.2, 868.4 745.5 C 866.4 724.2, 856.9 685.4, 847.9 661.7 C 839.1 638.5, 823.5 609, 819.9 609 C 819.5 609, 817.8 611.2, 816.2 613.9 M 613.0 659.6 C 612.4 661.0, 611.1 664.2, 610.1 666.8 C 603.7 682.1, 591.7 715.7, 588.4 727.5 C 585.5 737.8, 583.0 746.9, 580.0 758.5 C 572.6 786.5, 564.5 807.3, 544.0 850.5 C 535.2 869.0, 517.3 907.2, 506.8 930 C 501.8 940.7, 496.2 952.9, 494.3 957 C 490.1 966.0, 484.9 978.6, 480.9 989.5 C 471.5 1014.6, 466.4 1049.3, 467.5 1080 C 468.0 1096.0, 467.9 1098.4, 465.7 1108.8 C 464.0 1116.8, 463.6 1120.3, 464.4 1120.9 C 465.0 1121.3, 511.1 1122.0, 566.7 1122.3 L 668.0 1122.9 672.5 1119.0 C 678.1 1114.2, 684.4 1111.8, 699.5 1109.0 C 721.3 1104.8, 725.3 1102.1, 744.1 1077.4 C 757.3 1060.1, 768.4 1052.6, 781 1052.6 C 790.3 1052.6, 795.7 1055.6, 806.1 1067.0 C 818.7 1080.6, 830.4 1088.7, 835.8 1087.7 C 837.2 1087.4, 841.7 1087.8, 845.9 1088.6 C 862.3 1091.5, 880.6 1089.8, 906.5 1083.1 C 928.5 1077.3, 946.3 1072.1, 947.3 1071.1 C 948.7 1069.7, 909.0 1054.4, 875.5 1043.5 C 840.3 1032.0, 814.3 1025.0, 781 1017.9 C 768.1 1015.2, 753.9 1011.8, 749.6 1010.4 C 723.8 1002.1, 706.8 986.7, 693.1 959.1 C 681.2 935.3, 676.2 911.5, 677.3 884.2 C 678.2 862.0, 680.0 856.4, 697.4 823.0 C 708.4 801.9, 710.5 785.3, 704.1 770.5 C 703.6 769.4, 702.0 765.4, 700.5 761.5 C 698.1 755.1, 691.7 742.9, 689.1 739.8 C 688.5 739.1, 685.4 735.1, 682.3 730.9 C 665.7 709.0, 655.6 696.6, 645.6 685.7 C 635.9 675.2, 616.4 657, 614.9 657 C 614.4 657, 613.5 658.2, 613.0 659.6 M 738.5 789.6 C 726.7 790.6, 711.6 793.1, 710.9 794.2 C 710.5 794.8, 709.9 797.2, 709.5 799.5 C 708.5 806.4, 704.6 815.9, 696.2 832.1 C 686.1 851.6, 685.5 854.8, 686.3 882.5 C 687.6 927.4, 695.1 951.4, 713.4 969.5 C 717.3 973.4, 723.2 977.9, 726.5 979.6 C 734.4 983.8, 745.7 986.3, 752.9 985.5 C 765.0 984.2, 779.3 978.5, 789.3 971.3 C 791.9 969.3, 794.3 968.0, 794.6 968.3 C 794.9 968.5, 794.3 971.1, 793.4 974.0 C 792.0 978.4, 791.9 980.2, 792.8 985.1 C 795.8 1001.5, 805.7 1010.0, 836.7 1022.7 C 845.4 1026.2, 859.0 1031.9, 867 1035.2 C 879.7 1040.4, 904.5 1050.2, 919.5 1055.9 C 922.2 1056.9, 931.2 1060.4, 939.5 1063.6 C 947.8 1066.9, 955.0 1069.4, 955.5 1069.3 C 956.0 1069.3, 961 1068.3, 966.5 1067.2 C 987.4 1062.9, 992.9 1062.5, 1023 1062.5 C 1046.9 1062.5, 1054.6 1062.8, 1063.3 1064.3 C 1075.2 1066.3, 1082.7 1065.9, 1101.2 1062.0 C 1108.9 1060.5, 1128.3 1054.5, 1135.2 1051.5 C 1139.8 1049.6, 1136.1 1053.1, 1127.3 1059 C 1111.5 1069.6, 1109.5 1071.1, 1109.2 1071.9 C 1109.0 1072.4, 1111.3 1073.3, 1114.2 1074.0 C 1120.6 1075.5, 1131.8 1079.9, 1140.3 1084.1 C 1147.0 1087.5, 1160.3 1096.1, 1159.7 1096.7 C 1159.5 1096.8, 1150.6 1094.5, 1139.9 1091.4 C 1089.0 1076.8, 1054.3 1071.2, 1023 1072.3 C 997.8 1073.2, 976.5 1077.8, 933 1091.5 C 897.2 1102.8, 875.6 1107.3, 852.6 1108.3 L 846.7 1108.5 845.3 1112.5 C 841.2 1124.2, 836.1 1155.5, 838.0 1157.4 C 840.7 1160.1, 1002.5 1159.9, 1052 1157.0 C 1094.8 1154.6, 1123.9 1150.9, 1147 1144.9 C 1156.0 1142.6, 1173.0 1134.2, 1180.4 1128.4 C 1190.9 1120.1, 1196.7 1107.5, 1197.7 1090.9 C 1198.4 1078.8, 1196.2 1070.6, 1189.2 1059.9 C 1182.5 1049.7, 1175.0 1042.4, 1154.0 1025.6 C 1136.3 1011.5, 1126.4 1005.5, 1097 990.9 C 1092.6 988.7, 1059.5 970.4, 1051.5 965.8 C 1048.2 963.9, 1038.1 958.0, 1029 952.8 C 1012.8 943.5, 975.3 920.9, 965.5 914.5 C 919.1 884.5, 882.3 872.5, 850.5 877.0 C 836.2 879.1, 822.8 884.0, 812.1 891.1 C 810.2 892.4, 808.9 892.9, 809.1 892.3 C 809.3 891.7, 820.5 879.0, 834 864.1 C 860.6 834.6, 864.8 828.8, 863.6 822.8 C 862.1 814.6, 854.1 809.0, 834.9 802.5 C 820.0 797.6, 805.0 794.0, 789 791.5 C 778.7 789.9, 748.4 788.8, 738.5 789.6 M 772.5 1056.7 C 764.5 1059.6, 755.7 1067.1, 747.2 1078.4 C 743.0 1083.9, 736.4 1091.8, 732.5 1095.9 C 724.1 1104.8, 716.1 1108.9, 702.5 1111.4 C 688.2 1114.1, 683.7 1115.2, 680.5 1116.8 C 676.5 1118.8, 654 1142.0, 654 1144.2 C 654 1146.4, 657.0 1148, 660.8 1148 C 662.4 1148, 668.2 1146.8, 673.6 1145.4 C 689.8 1141.2, 699.2 1141.2, 728.5 1145.5 C 752.3 1149.1, 754.8 1149.3, 782 1149.5 C 798.6 1149.6, 814.2 1150.2, 819.3 1150.9 C 824.1 1151.6, 828.6 1152.0, 829.4 1151.7 C 830.3 1151.3, 830.9 1146.8, 831.3 1134.3 C 831.7 1125.1, 832.7 1112.5, 833.5 1106.5 C 834.3 1100.5, 835.0 1094.7, 835.0 1093.8 C 835.0 1092.6, 832.4 1090.7, 826.8 1087.9 C 819.9 1084.4, 816.9 1082.0, 806.6 1071.5 C 799.9 1064.8, 793.0 1058.5, 791.1 1057.5 C 786.0 1055.0, 778.4 1054.6, 772.5 1056.7 M 415.0 1114.9 C 411.5 1117.0, 408.4 1119.2, 408.2 1119.8 C 407.7 1121.3, 429.1 1121.9, 429.7 1120.4 C 430.2 1118.9, 428.5 1114.6, 426.5 1112.7 C 424.1 1110.2, 422.0 1110.6, 415.0 1114.9" stroke="none" fill="#000000" fill-rule="evenodd" /></svg>