<svg xmlns="http://www.w3.org/2000/svg" viewBox="0 0 1500 1500" version="1.1"><path d="M 799.9 209.9 C 795.4 212.8, 781.8 226.4, 776.3 233.5 C 768.0 244.3, 760.9 256.3, 750.9 276.4 C 742.5 293.3, 739.1 299.2, 736.4 301.4 C 734.4 303.0, 732.4 305.4, 732.0 306.6 C 731.5 307.8, 730.2 309.0, 729.1 309.2 C 726.4 309.6, 588.7 446.1, 579.5 457.5 C 575.5 462.4, 570.1 470.3, 567.4 475 L 562.5 483.5 562.5 494.6 L 562.5 505.7 567.2 515.2 C 569.8 520.5, 575.1 528.8, 578.9 533.6 C 586.2 543.1, 616.2 573.9, 624.5 580.5 C 627.2 582.7, 632.4 586.9, 636 590.0 C 639.6 593.0, 644.8 597.3, 647.5 599.6 C 665.2 613.9, 669.4 617.2, 677 623.0 C 689.1 632.2, 768.0 688.3, 780.7 696.8 C 784.1 699.1, 787.1 701.8, 787.4 702.7 C 787.9 704.4, 790.0 726.3, 793.5 767 C 794.3 776.6, 795.5 789.5, 796.0 795.5 C 803.3 879.2, 808.9 1060.4, 805.0 1087.5 C 802.7 1103.7, 803.3 1136.6, 806.9 1187.5 C 808.7 1212.2, 810.4 1245.0, 810.7 1260.2 C 811.4 1291.3, 810.7 1289.0, 819.2 1289.0 C 821.2 1289.0, 823.2 1289.4, 823.5 1290.0 C 824.6 1291.7, 821.0 1335.4, 819.7 1336.6 C 818.9 1337.3, 801.7 1338.1, 767.5 1338.9 C 684.7 1340.7, 640.1 1343.3, 525.5 1352.6 C 504.4 1354.3, 520.5 1354.9, 588.5 1355.0 C 659.3 1355.0, 679 1355.5, 679 1357 C 679 1357.4, 673.3 1359.1, 666.2 1360.9 C 649.2 1365.2, 642.8 1367.1, 643.3 1367.7 C 643.6 1367.9, 655.5 1367.5, 669.7 1366.6 C 721.1 1363.5, 753.4 1362.7, 807.3 1363.3 C 857.4 1363.8, 865 1364.1, 865 1366.0 C 865 1366.4, 861.8 1369.1, 857.9 1371.9 C 854.0 1374.8, 851.0 1377.3, 851.3 1377.6 C 851.5 1377.9, 858.4 1377.5, 866.6 1376.8 C 877.2 1375.9, 907.5 1375.5, 971.5 1375.5 C 1021 1375.4, 1062.5 1375.3, 1063.8 1375.2 C 1066.9 1374.9, 1066.6 1373.4, 1063.2 1372.6 C 1060.5 1371.9, 1043.0 1366.5, 1030.7 1362.5 C 1027.0 1361.2, 1023.9 1359.9, 1023.9 1359.4 C 1023.9 1358.9, 1033.0 1356.3, 1044.2 1353.6 C 1055.4 1350.9, 1064.7 1348.5, 1065.0 1348.3 C 1066.5 1347.0, 1060.7 1346.2, 1044.7 1345.6 C 995.5 1343.6, 974.5 1342.2, 970.7 1340.6 C 968.6 1339.7, 960.8 1337.6, 953.2 1335.9 C 936.2 1332.1, 918.7 1327.1, 908.4 1323.1 C 900.1 1319.9, 887.2 1312.0, 882.8 1307.3 C 879.8 1304.1, 873 1293.2, 873 1291.5 C 873 1290.9, 874.7 1289.9, 876.8 1289.4 C 880.4 1288.5, 880.5 1288.3, 880.3 1284.5 C 880.1 1282.3, 879.6 1273.1, 879.0 1264 C 877.7 1242.8, 877.7 1180.2, 879.0 1153.9 C 882.2 1088.9, 884.6 1067.8, 893.0 1031 C 907.9 965.4, 916.1 905.4, 926.5 784.1 C 927.8 768.0, 929.4 754.2, 930.0 753.5 C 930.6 752.8, 934.4 752.0, 938.6 751.6 C 951.0 750.5, 975.2 745.6, 991.5 741.0 C 995.4 739.9, 1001.6 738.2, 1005.5 737.1 C 1030.5 730.1, 1066.9 714.1, 1090.6 699.8 C 1117.9 683.4, 1143.2 658.7, 1157.7 634.3 C 1166.0 620.3, 1172.2 605.6, 1177.1 588 C 1180.0 577.3, 1182.9 570.0, 1184.2 570.0 C 1185.6 570.0, 1183.6 593.6, 1180.5 613.5 C 1175.0 649.0, 1159.9 691.6, 1142.1 721.8 C 1140.4 724.7, 1139 727.5, 1139 728.1 C 1139 729.8, 1158.6 719.1, 1169.3 711.5 C 1196.3 692.3, 1218.2 667.5, 1232.4 640 C 1247.6 610.4, 1252.8 590.4, 1253.9 556.5 C 1254.4 540.3, 1254.7 537.6, 1256 537.9 C 1256.8 538.2, 1260.9 538.5, 1265 538.8 C 1271.5 539.1, 1272.9 538.9, 1275.2 537.1 C 1276.6 535.9, 1278.2 533.6, 1278.5 531.9 C 1279.0 529.8, 1280.3 528.1, 1282.6 526.8 C 1284.5 525.7, 1286.8 523.4, 1287.7 521.6 C 1288.6 519.9, 1290.1 517.9, 1291.1 517.2 C 1292.2 516.5, 1293.0 514.9, 1293.0 513.7 C 1293.0 509.7, 1296.6 507, 1301.8 507 C 1306.4 507, 1307.4 505.0, 1306.5 497.2 C 1304.7 482.0, 1306.2 473.6, 1312.4 465.6 C 1319.4 456.3, 1321.7 447.1, 1322.6 424.5 C 1323.2 410.2, 1323.0 407.5, 1321.1 399.5 C 1314.1 370.3, 1290.5 345.0, 1264.0 338.4 C 1259.2 337.2, 1254.3 336.9, 1244.9 337.2 L 1232.2 337.6 1231.7 332.5 C 1230.1 317.1, 1219.7 303.5, 1205.3 297.9 C 1200.8 296.2, 1197.3 295.7, 1189.5 295.6 C 1180.2 295.5, 1179.0 295.7, 1172.7 298.7 C 1160.9 304.3, 1150.1 317.1, 1145.1 331.3 C 1141.7 341.0, 1141.1 343.5, 1140.1 351.3 C 1138.5 362.6, 1138.8 371.2, 1141.0 381.5 C 1144.2 396.8, 1145.1 400.0, 1146.3 399.9 C 1147.0 399.9, 1149.5 396.7, 1152 392.8 C 1158.0 383.3, 1173.9 366.9, 1183.9 359.7 C 1194.9 351.7, 1207.2 344.8, 1208.3 345.9 C 1209.7 347.3, 1208.3 348.8, 1202.7 351.7 C 1182.5 361.9, 1157.3 386.9, 1147.0 407.0 C 1137.4 425.8, 1139.8 446.5, 1153.3 461.6 C 1155.8 464.3, 1159.4 467.5, 1161.4 468.5 C 1163.4 469.6, 1165 470.9, 1165 471.5 C 1165 472.6, 1154.7 479.3, 1151.0 480.6 C 1147.7 481.7, 1146.2 481.4, 1134 477.5 C 1128.2 475.7, 1116.1 472.4, 1107 470.2 C 1091.2 466.4, 1082.5 464.6, 1057 460.0 C 1028.5 454.8, 1011.8 448.9, 972.4 430.2 C 953.8 421.4, 941.2 415.9, 902 399.5 C 885.3 392.5, 861.0 381.3, 827.5 365.0 C 808.1 355.6, 800.6 348.9, 793.1 334.3 C 790.4 328.8, 790.4 327.8, 793.9 322.9 C 798.0 317.3, 799.6 311.7, 801.9 295.7 C 804.2 280.1, 805.8 275.8, 812.4 267.8 C 818.2 260.9, 818.8 258.7, 818.3 248.0 C 818.1 243.3, 817.9 237.4, 818.0 234.8 C 818.0 232.3, 817.6 229.9, 817.0 229.5 C 816.5 229.2, 816 227.2, 816 225.1 C 816 222.9, 815.4 220.7, 814.5 220 C 813.6 219.3, 813 217.1, 813 214.9 C 813 212.0, 812.4 210.7, 810.4 209.1 C 806.9 206.3, 805.2 206.5, 799.9 209.9 M 803.2 211.6 C 795.7 215.4, 781.7 230.7, 770.7 247.2 C 766.0 254.2, 747 290.6, 747 292.5 C 747 292.8, 748.9 293.0, 751.2 293.0 C 758.2 293.0, 765.5 297.2, 774.0 305.9 C 778.1 310.2, 783.1 316.2, 785 319.3 C 786.9 322.4, 788.7 324.9, 789.0 325.0 C 790.1 325.1, 795.0 314.3, 796.4 308.5 C 797.2 305.2, 798.4 298.4, 798.9 293.5 C 800.3 280.5, 802.2 275.5, 808.4 267.7 C 816.0 258.3, 818.1 251.0, 812.9 252.3 C 809.6 253.2, 809.6 250.9, 812.9 248.0 C 816.2 244.9, 816.5 244.3, 815.1 242.1 C 814.3 240.9, 813.6 240.8, 811.6 241.8 C 807.3 243.7, 807.2 241.0, 811.5 237.4 C 814.2 235.1, 815.1 233.8, 814.6 232.5 C 814.2 231.3, 813.3 231.0, 812.0 231.4 C 810.9 231.7, 809.1 232.3, 808 232.6 C 804.6 233.7, 805.7 230.4, 809.5 228.1 C 813.1 226.0, 813.4 225.3, 812.4 222.6 C 811.4 220.1, 807.8 220.7, 804.0 224.0 C 799.8 227.5, 798.8 227.7, 799.2 224.8 C 799.4 223.3, 801.3 221.4, 804.2 219.5 C 809.8 215.9, 810.5 214.8, 808.2 212.1 C 806.6 210.1, 806.3 210.1, 803.2 211.6 M 747.5 298.2 L 744.7 300.6 747.9 303.9 C 750.8 306.8, 752.0 310.1, 750.2 310.0 C 749.8 309.9, 747.9 308.6, 746.0 307.0 C 742.1 303.6, 740.4 303.3, 737.2 305.6 C 734.1 307.7, 734.4 309.8, 738.6 314.1 C 743.6 319.2, 742.1 320.8, 736.4 316.5 C 731.3 312.6, 729.5 312.3, 726.2 314.6 C 723.0 316.8, 723.5 318.9, 728.1 322.8 C 732.7 326.8, 732.1 329.6, 727.3 326.2 C 722.5 322.8, 720.3 322.6, 717.5 325.4 C 712.7 330.2, 714.6 334.8, 724.0 340.5 C 730.0 344.1, 742.3 356.5, 741.7 358.3 C 741.5 358.9, 737.7 359.4, 733.3 359.6 C 723.7 359.9, 721.4 360.5, 719.9 363.1 C 718.4 365.9, 719.5 368.3, 723.2 370.5 C 726.0 372.1, 729.2 372.5, 742.6 373.0 L 758.7 373.5 767.6 378.1 C 772.5 380.6, 787.1 388.2, 800 394.9 C 812.9 401.7, 830.0 410.6, 838 414.7 C 868.3 430.5, 882.7 438.4, 889.5 442.9 C 893.4 445.5, 903.7 452.5, 912.5 458.4 C 928.0 468.9, 941.6 476.4, 953 480.8 C 959.0 483.1, 972.2 486, 976.8 486 C 979.3 486, 980.3 487.0, 984.4 493.5 C 989.8 502.0, 988.9 501.5, 1023.5 516.8 C 1056.7 531.5, 1122.5 556.0, 1142.2 561.0 C 1155.8 564.5, 1167.8 563.3, 1177.2 557.3 C 1190.0 549.3, 1191.7 525.9, 1180.7 508.8 C 1172.4 495.8, 1152.0 485.5, 1115 475.6 C 1102.4 472.3, 1091.6 470.0, 1050.5 462.0 C 1024.8 457.0, 1009.6 451.4, 962 429.0 C 943.0 420.0, 931.7 415.1, 919.5 410.5 C 902.8 404.2, 852.8 381.4, 821.6 365.9 C 805.8 358.0, 797.1 349.5, 789.5 334.4 C 781.2 317.8, 773.7 308.0, 764 301.5 C 755.6 295.8, 751.3 295.0, 747.5 298.2 M 648.4 391.8 C 587.3 452.6, 577.4 463.3, 571.4 475.1 L 568.9 480.1 570.9 492.4 C 573.0 505.1, 574.3 510, 575.8 510 C 576.2 510, 578.3 507.9, 580.4 505.4 C 584.5 500.5, 590.6 497.1, 595.2 497.0 C 596.8 497.0, 598 497.2, 598 497.4 C 598 497.6, 596.3 499.5, 594.2 501.6 C 588.7 507.2, 586.3 515.3, 588.0 522.7 C 590.6 534.4, 598.6 544.1, 617 557.6 C 628.0 565.7, 643.9 576.0, 649.3 578.6 C 651.3 579.6, 653 580.7, 653 581.2 C 653 583.3, 631.2 572.5, 619.1 564.4 C 615.5 562.0, 612.4 560.2, 612.2 560.5 C 611.0 561.7, 616.6 568.4, 625.5 576.4 C 635.6 585.4, 656.1 602.8, 661.1 606.5 C 662.6 607.6, 670.9 613.9, 679.6 620.6 C 692.5 630.4, 729.7 657.1, 755.4 675.1 C 758.1 677.0, 762.1 679.8, 764.4 681.4 C 766.7 683.0, 778.0 690.7, 789.5 698.5 C 825.9 723.0, 852.5 734.9, 893 744.8 C 913.2 749.8, 922.0 750.9, 924.2 748.6 C 925.8 747.0, 931.4 719.8, 935.0 696.5 C 939.2 668.4, 940.3 654.0, 940.4 625.5 L 940.5 597.5 935 594.9 C 913.4 584.5, 882.8 578, 855.5 578 C 844.4 578, 843.8 578.1, 841.5 580.5 C 836.9 585.6, 832.0 598.2, 828.4 614.5 C 826.4 623.8, 822.0 650.8, 822.0 654.2 C 822.0 655.8, 821.5 657, 821 657 C 820.4 657, 820 654.0, 820 650.0 C 820 640.6, 816.6 614.9, 813.5 601.7 C 810.8 589.7, 807.3 582.6, 801.3 576.9 C 796.5 572.3, 792.9 570.1, 770 557.4 C 759.8 551.8, 744.5 543.3, 736 538.5 C 727.5 533.7, 716 527.3, 710.5 524.2 C 705 521.2, 695.8 516.0, 690 512.8 C 684.2 509.6, 677.5 506.0, 675.1 504.9 L 670.8 502.8 665.1 505.3 C 655.5 509.6, 641 512.6, 641 510.2 C 641 509.8, 643.1 508.9, 645.6 508.2 C 650.9 506.8, 657.8 502.3, 661.0 498.3 C 664.3 494.1, 663.3 490.9, 658.1 488.4 L 653.7 486.3 661.1 484.1 C 668.4 481.8, 675.9 477.4, 679.2 473.5 C 682.1 470.1, 687 460.4, 687 458.1 C 687 456.9, 685.9 455.0, 684.5 453.8 C 681.5 451.2, 681.3 450, 684.0 450 C 690.5 450, 702.1 439.1, 712.3 423.4 C 724.3 404.9, 739.4 377.7, 738.3 376.6 C 737.9 376.3, 735.6 376, 733.0 376 C 719.7 376, 711.4 366.7, 718.5 360.0 C 720.4 358.2, 722.7 357.4, 727.6 356.9 C 731.2 356.6, 734.3 356.0, 734.6 355.7 C 735.9 354.5, 731.2 349.5, 724.5 345.0 C 716.3 339.5, 710.8 333.7, 711.6 331.5 C 712.0 330.7, 711.8 330.0, 711.4 330.0 C 710.9 330.1, 682.6 357.8, 648.4 391.8 M 1254.4 362.1 C 1253.5 363.7, 1254.9 364.7, 1259.7 366.0 C 1269.3 368.4, 1278.0 373.9, 1287.8 383.8 C 1294.6 390.7, 1297.2 392.7, 1297.6 391.6 C 1298.4 389.5, 1291.4 380.8, 1284.0 374.9 C 1274.5 367.3, 1256.1 359.4, 1254.4 362.1 M 753.3 376.9 C 751.7 377.9, 744.0 392.7, 744.7 393.3 C 745.0 393.7, 746.3 394, 747.4 394 C 748.6 394, 753.8 396.2, 759.0 398.9 C 764.2 401.6, 788.3 413.7, 812.5 425.8 C 867.9 453.4, 873.2 456.3, 897 472.3 C 925.2 491.1, 943.8 499.7, 961.2 502.0 C 974.2 503.7, 974.1 503.5, 957.8 494.5 C 941.9 485.8, 910.9 467.2, 895 456.8 C 871.9 441.8, 859.6 434.4, 839.5 423.5 C 808.1 406.5, 795.3 399.3, 783.5 391.5 C 777.5 387.5, 770.9 383.3, 768.9 382.1 C 764.0 379.3, 754.5 376.0, 753.3 376.9 M 1214 389.1 C 1214 394.5, 1235.0 420, 1239.5 420 C 1242.5 420, 1240.9 417.4, 1233.2 409.8 C 1228.9 405.5, 1223.4 398.9, 1220.9 395.1 C 1216.9 388.8, 1214 386.2, 1214 389.1 M 739.6 400.2 C 737.4 404.1, 720.4 431.8, 716.9 437.2 C 715.6 439.3, 707.2 451.9, 698.3 465.2 L 682.1 489.5 684.3 491.3 C 685.5 492.4, 691.9 496.2, 698.5 499.9 C 710.0 506.4, 718.9 511.6, 744 526.5 C 750.3 530.2, 758.0 534.7, 761 536.5 C 764.0 538.2, 776.4 545.5, 788.5 552.7 C 816.0 568.8, 830.5 577, 831.9 577 C 832.5 577, 836.3 575.9, 840.3 574.5 C 852.1 570.6, 864.5 569.5, 881.2 570.9 C 901.4 572.6, 912.4 575.2, 936.4 584.2 C 938.8 585.1, 939.5 585.0, 940.5 583.7 C 941.4 582.4, 942.7 582.3, 948.6 583.0 C 978.4 586.9, 1000.3 578.0, 1019.1 554.4 C 1021.8 551.0, 1024 547.8, 1024 547.3 C 1024 546.9, 1016.7 543.3, 1007.8 539.6 C 991.3 532.6, 942.8 508.8, 929 500.9 C 913.5 492.1, 887.8 476.5, 871.2 465.8 C 861.7 459.7, 826.7 440.5, 803 428.5 C 794.6 424.2, 784.9 418.5, 769.4 408.9 C 749.2 396.4, 742.9 394.5, 739.6 400.2 M 1169.7 402.8 C 1168.2 405.4, 1164.9 417.6, 1164.1 423.5 C 1163.1 430.5, 1164.1 442.4, 1166.1 447.7 C 1166.8 449.7, 1167.3 450.0, 1168.4 449.1 C 1169.5 448.1, 1169.6 447.2, 1168.7 444.2 C 1167.0 438.2, 1167.4 421.4, 1169.4 414 C 1172.0 404.9, 1172.4 402, 1171.2 402 C 1170.6 402, 1169.9 402.3, 1169.7 402.8 M 1288.3 419.2 C 1287.8 419.9, 1286.7 422.5, 1286.0 424.8 C 1284.3 430.2, 1277.1 438.0, 1271 441.0 C 1264.3 444.3, 1263.1 445.7, 1258.5 455.5 C 1254.7 463.6, 1245.4 476, 1243.0 476 C 1242.6 476, 1242.5 473.0, 1242.8 469.2 C 1243.9 453.0, 1235.7 438.1, 1224.5 436.3 C 1218.4 435.3, 1215.5 438.0, 1210.0 449.5 C 1206.2 457.4, 1204.0 460.7, 1200.7 463.4 C 1193.8 469.1, 1186.1 472.1, 1177.5 472.6 C 1171.5 472.9, 1169.2 473.5, 1166.7 475.3 C 1164.9 476.6, 1161.6 478.8, 1159.2 480.0 C 1156.9 481.3, 1155 482.7, 1155 483.0 C 1155 483.4, 1158.3 485.7, 1162.3 488.3 C 1172.9 495.0, 1182.1 503.8, 1185.7 510.7 C 1190.3 519.5, 1191.3 524.7, 1190.8 536.0 C 1190.4 544.9, 1189.9 546.8, 1186.7 553.2 C 1183.5 559.8, 1182.6 562.8, 1182.9 565.4 C 1182.9 565.9, 1185.3 562.7, 1188.1 558.4 C 1194.6 548.4, 1205.2 538.0, 1215.5 531.3 C 1219.9 528.4, 1224.3 525.5, 1225.3 524.8 C 1227.1 523.5, 1227.0 523.1, 1225.0 512.7 C 1223.8 506.8, 1223.0 501.3, 1223.4 500.5 C 1224.4 497.9, 1225.8 498.9, 1226.5 502.7 C 1228.3 512.6, 1234.5 520.6, 1246.0 528.0 C 1255.2 533.9, 1260.6 536, 1266.2 536 C 1271.6 536, 1273.5 534.8, 1275.4 530.0 C 1276.4 527.4, 1278.3 525.2, 1280.4 523.9 C 1284.7 521.4, 1285.4 519.7, 1282.9 517.4 C 1280.4 515.2, 1280.3 512.5, 1282.8 513.5 C 1286.8 515.3, 1289.4 514.6, 1290.3 511.5 C 1291.9 506.2, 1292.6 505.5, 1297.6 504.7 C 1304.3 503.6, 1305.1 502.3, 1303.3 495.2 C 1301.4 488.0, 1302.1 477.8, 1304.9 471.4 C 1306.1 468.8, 1307 466.6, 1307 466.4 C 1307 465.3, 1301.2 462.5, 1296.7 461.5 C 1290.5 460.1, 1289.2 458.0, 1294.7 458.0 C 1296.8 458.0, 1301.0 459.2, 1304.0 460.6 L 1309.5 463.1 1311.8 460.3 C 1314.4 457.0, 1317.8 446.8, 1318.6 439.6 C 1319.0 435.6, 1318.7 433.8, 1317.1 431.4 C 1312.0 423.3, 1291.7 414.7, 1288.3 419.2 M 1290 475.3 C 1290 477.4, 1294.4 481, 1296.8 481 C 1300.0 481, 1299.5 479.6, 1295.2 476.6 C 1290.9 473.7, 1290 473.4, 1290 475.3 M 972 504.0 C 972 505.9, 978.7 515.7, 981.1 517.4 C 983.4 519.0, 1015.0 533.1, 1024.7 536.9 L 1030.0 539.0 1032.5 536.2 C 1033.9 534.7, 1034.9 533.1, 1034.7 532.6 C 1034.5 532.1, 1026.8 528.2, 1017.4 524.0 C 1008.1 519.8, 994.4 513.3, 987 509.7 C 972.8 502.7, 972 502.4, 972 504.0 M 1056 545.8 C 1056 550.2, 1058.7 562.9, 1061.6 572 C 1064.5 581.2, 1067.4 587.6, 1072.6 595.7 C 1074.4 598.5, 1075.6 601.1, 1075.3 601.4 C 1074.4 602.3, 1063.8 593.5, 1054.7 584.1 C 1049.9 579.2, 1046 575.7, 1046 576.3 C 1046 576.8, 1048.0 581.5, 1050.4 586.6 C 1052.9 591.8, 1054.5 596, 1054.1 596 C 1053.0 596, 1042.1 583.7, 1035.1 574.7 C 1027.2 564.7, 1022.5 562.9, 1020.0 569.1 C 1017.5 575.1, 1022.5 595.6, 1032.2 619.5 C 1034.4 625, 1037.1 631.2, 1038.1 633.2 C 1039.2 635.3, 1039.6 637, 1039.1 637 C 1036.6 637, 1013.4 609.0, 1006.1 597.1 C 1000.6 588.2, 998.7 587.0, 996.4 590.6 C 994.8 592.9, 994.8 594.2, 995.9 604.3 C 996.6 610.5, 997.6 618.1, 998.1 621.4 C 998.7 624.6, 998.9 627.4, 998.6 627.7 C 998.3 628.0, 995.9 623.8, 993.2 618.4 C 987.1 606.3, 983.0 600.6, 979.0 598.5 C 976.2 597.1, 975.9 597.1, 974.0 599.0 C 971.6 601.4, 971.4 606.9, 973.5 615.5 C 976.7 628.8, 974.8 629.4, 969.5 616.8 C 963.0 601.3, 959.8 597.4, 955.2 599.9 C 952.2 601.5, 951.2 605.5, 950.6 618.5 C 949.4 642.1, 948.0 647.2, 946.5 633.8 C 946.1 630.6, 945.5 628, 945.1 628 C 944.6 628, 944.0 634.4, 943.6 642.2 C 942.2 670.0, 938.6 698.5, 932.4 730.4 C 930.5 740.2, 929.1 748.5, 929.5 748.8 C 931.2 750.5, 965.0 744.6, 987.5 738.5 C 1021.3 729.5, 1039.6 722.6, 1067.5 708.5 C 1096.9 693.6, 1112.6 682.4, 1131.1 663.2 C 1151.1 642.5, 1165.1 618.0, 1173.2 589.1 C 1177.5 573.5, 1178.9 567.1, 1178.0 566.5 C 1177.6 566.2, 1174.7 567.1, 1171.7 568.5 C 1168.7 569.9, 1163.3 571.5, 1159.9 572.0 C 1156.4 572.5, 1150.6 573.5, 1147.0 574.1 C 1139.6 575.5, 1127.0 574.4, 1118.5 571.5 C 1104.7 566.9, 1071.3 551.8, 1061.7 545.9 C 1059.1 544.3, 1056.8 543, 1056.5 543 C 1056.2 543, 1056 544.2, 1056 545.8 M 877 744.5 C 877 744.8, 880.5 748.8, 884.9 753.3 C 889.2 757.8, 895.4 764.6, 898.5 768.5 C 905.0 776.4, 916.3 793.0, 915.6 793.7 C 915.3 794.0, 910.5 790.2, 904.8 785.3 C 899.1 780.4, 889.9 773.2, 884.4 769.3 C 873.9 761.9, 856.3 751, 854.8 751 C 853.7 751, 853.7 751.0, 860.6 761.2 C 866.9 770.6, 876.1 793, 873.7 793 C 873.4 793, 870.9 790.0, 868.2 786.2 C 865.5 782.5, 860.9 777.1, 858.0 774.2 C 848.2 764.3, 827.9 750.6, 826.0 752.6 C 825.1 753.6, 824.9 753.3, 847.3 790.3 C 856.0 804.5, 863 816.5, 863 817.0 C 863 817.4, 855.3 810.0, 845.9 800.5 C 825.6 779.9, 821.0 777.0, 816 782 C 813.6 784.4, 813.4 789.0, 815.6 793.3 C 816.6 795.1, 823.8 805.9, 831.7 817.4 C 846.8 839.2, 849.1 843.1, 844.9 839.4 C 837.5 833.0, 830.1 831.3, 822.8 834.3 C 818.5 836.1, 816 840.3, 816 845.8 C 816 850.1, 819.7 858.1, 833.4 883.8 C 838.1 892.6, 842 900.5, 842 901.2 C 842 901.8, 836.1 896.6, 829.0 889.5 C 821.8 882.5, 815.7 876.9, 815.4 877.2 C 815.1 877.5, 815.6 881.5, 816.4 886.1 C 817.3 890.7, 818.9 903.7, 820.1 915 C 822.1 934.8, 822.2 936.9, 820.9 973.9 C 819.9 1004.4, 819.9 1017.3, 820.8 1035.9 C 822.7 1071.9, 824.4 1080.8, 831.3 1088.6 C 834.0 1091.7, 834.7 1093, 833.6 1093 C 830.9 1093, 825.6 1090.4, 823.6 1088.1 C 820.7 1084.9, 820.0 1085.6, 822.0 1089.8 C 828.9 1104.0, 833.9 1117.4, 836.5 1128.5 C 838.6 1137.5, 839.6 1150, 838.3 1150 C 837.7 1150, 833.9 1144.4, 829.9 1137.6 C 825.8 1130.7, 822.2 1125.7, 821.9 1126.3 C 821.2 1127.8, 823.6 1258.0, 824.4 1258.7 C 824.7 1259.0, 831.7 1259.2, 839.9 1259.1 C 854.2 1258.9, 862.2 1259.9, 863.5 1262.0 C 863.9 1262.7, 859.6 1262.8, 851.3 1262.4 C 835.3 1261.6, 818.7 1263.3, 815.9 1266.1 C 813.4 1268.6, 813.1 1284.4, 815.5 1285.4 C 816.4 1285.7, 825.0 1286.4, 834.8 1287.0 C 852.0 1288.1, 873.5 1287.6, 876.0 1286.0 C 876.9 1285.4, 876.9 1281.0, 876.1 1265.7 C 874.7 1241.3, 874.7 1181.4, 876.0 1153 C 879.1 1087.0, 881.4 1066.3, 890.5 1026.5 C 904.6 964.6, 913.0 903.6, 922.5 793.5 C 923.4 783.6, 924.5 770.8, 925.0 765.1 C 925.6 759.3, 925.7 754.3, 925.3 754.0 C 924.8 753.6, 919.5 752.8, 913.5 752.2 C 903.7 751.2, 880.9 746.3, 878.1 744.5 C 877.5 744.2, 877 744.2, 877 744.5 M 827.6 1290.8 C 827.4 1291.2, 826.4 1303.0, 825.4 1317.0 C 823.9 1339.3, 823.8 1342.9, 825.1 1345.4 C 828.8 1352.9, 837.3 1354.6, 853 1351.0 C 858.3 1349.7, 867.6 1348.6, 874 1348.3 C 885.6 1347.8, 888.1 1348.1, 904 1352.5 C 923.6 1357.9, 955.7 1360.1, 965.7 1356.7 C 971.2 1354.8, 976.4 1350.7, 975.7 1348.7 C 974.8 1345.9, 968.2 1343.0, 957.2 1340.5 C 913.8 1330.5, 895.8 1323.4, 882.7 1311.0 C 877.9 1306.6, 874.8 1302.5, 872.4 1297.8 C 870.5 1294.1, 868.6 1291.0, 868.2 1290.9 C 861.6 1290.4, 827.9 1290.3, 827.6 1290.8" stroke="none" fill="#000000" fill-rule="evenodd" /></svg>