<svg xmlns="http://www.w3.org/2000/svg" viewBox="0 0 1500 1500" version="1.1"><path d="M 494.3 289.4 C 487.8 291.5, 481.4 295.7, 477.9 300.0 L 474.7 304 464.8 304 C 452.8 304, 450.0 305.2, 441.7 313.8 C 433.9 322.0, 431.8 327.2, 431.6 338.1 C 431.5 346.5, 431.4 346.8, 428.2 349.5 C 423.7 353.3, 422 357.0, 422 363.3 C 422 376.2, 435.3 390.9, 449.2 393.5 C 451.3 393.9, 453.6 394.7, 454.5 395.4 C 456.0 396.5, 455.6 397.1, 451.3 400.4 C 440.0 409.2, 423.4 415, 409.4 415 C 404.6 415, 402.9 415.3, 403.3 416.2 C 403.6 417.1, 406.2 417.4, 412.6 417.3 C 425.7 417.0, 438.8 412.5, 449.7 404.7 C 452.1 403.0, 454.2 401.9, 454.5 402.2 C 454.8 402.5, 453.8 405.3, 452.4 408.6 C 447.4 419.8, 445.8 426.2, 445.3 436.8 C 444.6 450.5, 447.5 461.2, 454.6 470.7 C 455.9 472.4, 457 474.3, 457 474.8 C 457 476.0, 433.7 493.2, 424.1 499.1 C 419.9 501.7, 409.5 507.8, 401.0 512.6 C 344.2 545.2, 305.3 588.9, 275.6 653.7 C 263.3 680.4, 256.0 704.4, 251.5 733.2 C 248.9 749.2, 248.4 794.5, 250.4 819 C 252.1 838.8, 256.1 873.0, 261.4 911.5 C 266.6 949.2, 268.0 971.5, 268 1014.5 C 268.0 1051.8, 269.0 1072.2, 271.5 1087.2 C 272.3 1092.1, 273.0 1098.4, 273.0 1101.2 C 273.0 1123.6, 280.8 1147.0, 292.3 1159.6 C 296.4 1164.2, 296.9 1165.1, 295.5 1165.7 C 294.5 1166.0, 269.3 1166.0, 239.4 1165.7 C 209.5 1165.4, 185 1165.4, 185 1165.8 C 185 1166.2, 215.2 1169.1, 252.1 1172.3 C 314.2 1177.7, 340 1180.8, 340 1183.0 C 340 1184.0, 335.5 1184.6, 319.2 1186.1 C 294.7 1188.4, 298.4 1188.7, 382.5 1191.6 C 408.9 1192.5, 430.7 1193.4, 431.0 1193.7 C 432.1 1194.7, 427.5 1195.8, 403.1 1200.0 C 388.7 1202.4, 377 1204.7, 377 1205.1 C 377 1205.5, 403.2 1205.6, 435.2 1205.4 C 467.3 1205.1, 608.9 1204.5, 750 1204.0 C 1118.0 1202.6, 1255 1201.8, 1255 1201.0 C 1255 1200.7, 1244.8 1198.4, 1232.2 1196.1 C 1210.6 1192.0, 1205.8 1190.6, 1209.1 1189.6 C 1209.9 1189.4, 1233.9 1187.1, 1262.5 1184.4 C 1291.1 1181.8, 1314.7 1179.5, 1314.9 1179.3 C 1316.7 1177.9, 1308.5 1177.4, 1270.8 1177 L 1227.9 1176.5 1226.1 1171.3 C 1222.8 1161.6, 1214.8 1153.1, 1182 1124.5 C 1153.5 1099.6, 1130.9 1076.0, 1079.0 1016.5 C 1053.9 987.7, 1005.9 934.4, 1003.0 932 C 1002.6 931.7, 996.3 925.0, 989.0 917 C 959.3 884.8, 917.7 842.2, 894.8 820.5 C 867.1 794.3, 859.5 786.8, 812.5 738.6 C 784.5 709.9, 777.3 702.0, 771.8 693.6 C 755.4 668.7, 746.7 660.4, 727.5 651.0 C 708.9 642.0, 695.5 638.1, 682 638.0 C 679.0 638.0, 675.4 637.4, 674 636.6 C 670.6 634.8, 652.0 624.2, 632.5 613.0 C 617.0 604.1, 613.7 602.3, 588.7 589.0 C 582.2 585.6, 576.6 582.2, 576.3 581.4 C 575.5 579.3, 578.0 573.1, 580.0 572.0 C 581.0 571.4, 582.9 571, 584.3 571 C 587.0 571, 591 567.2, 591 564.7 C 591 563.8, 592.4 562.4, 594.2 561.7 C 598.1 560.0, 599.5 558.5, 600.4 554.5 C 602.1 547.5, 604.8 547.4, 617.6 553.6 C 625.6 557.5, 627.5 558.1, 629.4 557.2 C 632.6 555.8, 632.9 553.0, 632.3 536.0 C 631.9 525.9, 632.1 520.3, 632.9 517.7 C 634.2 513.9, 638.1 510.3, 646.0 505.8 C 657.2 499.4, 671.4 484.1, 676.1 473.4 C 678.8 467.3, 679.8 466.1, 683.7 464.0 C 691.9 459.6, 701.7 445.3, 704.1 433.9 C 705.9 425.7, 704.8 414.4, 701.7 408.5 C 696.6 398.4, 684.0 389.4, 673.5 388.1 L 668.5 387.5 667.8 380.5 C 667.5 376.6, 666.4 371.7, 665.5 369.5 C 661.1 359.2, 650.6 349.3, 637.2 342.9 C 618.6 334.1, 585.3 330.0, 557.0 333.1 C 551.4 333.7, 546.6 334.0, 546.3 333.7 C 546.0 333.4, 546.7 331.9, 547.8 330.3 C 553.7 322.0, 559.5 306.8, 560.6 297 C 561.5 289.7, 559.7 291.4, 557.5 300 C 554.5 312.1, 547.8 327.6, 546.1 326.6 C 545.7 326.3, 545.0 323.5, 544.6 320.4 C 543.2 308.3, 534.4 296.3, 523.2 291.3 C 516.2 288.1, 501.1 287.1, 494.3 289.4 M 590 362.0 C 590 362.6, 591.2 363.5, 592.8 364.0 C 600.0 366.6, 606.9 371.1, 613.5 377.5 C 617.5 381.4, 621.5 385.6, 622.3 386.9 C 623.2 388.3, 624.2 389.1, 624.6 388.8 C 627.4 385.9, 612.8 371.1, 601.3 365.2 C 593.2 361.0, 590 360.1, 590 362.0 M 551 401.0 C 551 402.4, 561.2 417, 562.2 417 C 563.8 417, 562.9 415.2, 558.0 407.6 C 553.5 400.7, 551 398.3, 551 401.0 M 475.7 416.8 C 475.4 417.2, 474.7 420.1, 474.1 423.2 C 472.9 429.0, 473.6 436.1, 475.9 442.2 C 477.2 445.6, 479.5 446.0, 478.6 442.8 C 476.0 433.6, 475.8 428.5, 477.6 418.8 C 478.1 416.2, 476.8 414.9, 475.7 416.8 M 527.4 444.4 C 518.1 448.6, 512.0 458.6, 509.7 473.0 L 508.4 481.4 504.5 477.9 C 497.6 471.9, 492.3 468, 490.8 468 C 488.9 468, 483.6 479.5, 482.0 487 C 479.7 497.5, 480.4 497.4, 469.8 487.2 C 464.6 482.1, 459.7 478, 459.1 478 C 458.4 478, 454.4 480.7, 450.3 484.0 C 440.1 492.2, 428.1 500.2, 410.9 510.0 C 396.0 518.6, 394.4 519.5, 382 527.6 C 364.0 539.2, 347.3 553.5, 333.3 569.2 C 299.2 607.6, 284.8 638.2, 291.9 657.0 C 296.0 667.8, 309.2 679.9, 324.5 687.0 C 345.7 696.9, 369.0 698.3, 400.4 691.9 C 417.0 688.5, 435.0 683.3, 445.0 679.1 C 455.5 674.6, 470.5 664.2, 468.9 662.6 C 468.7 662.3, 461.5 661.2, 453.0 660.0 C 444.5 658.8, 435.5 657.4, 433 656.8 C 424.6 654.8, 414.8 649.0, 407.3 641.8 C 395.5 630.3, 390 617.4, 390 601 C 390 570.5, 412.0 546.7, 443.0 543.5 C 450.5 542.7, 471.5 546.0, 491.5 551.0 C 498.0 552.6, 503.7 553.7, 504.1 553.2 C 504.5 552.8, 506.7 548.0, 509.0 542.6 C 511.3 537.2, 513.7 531.9, 514.3 530.9 C 515.2 529.4, 514.6 526.4, 510.7 515.2 C 505.7 500.5, 505.3 498.6, 507.2 499.2 C 507.8 499.4, 510.0 504.5, 512.0 510.6 C 522.3 541.2, 529.6 560.9, 531.4 562.6 C 532.0 563.2, 536.8 565.4, 542 567.5 C 547.2 569.6, 556.2 573.5, 561.9 576.2 C 567.6 578.8, 572.6 580.8, 573.0 580.5 C 573.4 580.3, 574.0 578.4, 574.3 576.4 C 575.1 571.9, 577.5 569, 580.7 569 C 583.9 569, 586.7 567.4, 588.0 564.9 C 589.0 563.2, 588.3 562.1, 582.9 556.5 C 576.3 549.6, 575.4 546.2, 581.8 552.1 C 587.9 557.9, 591.0 559.9, 592.8 559.3 C 595.8 558.2, 598 555.8, 598 553.5 C 598 550.1, 601.7 546, 604.8 546.0 C 606.3 546.0, 611.9 548.1, 617.2 550.7 C 630.4 557.0, 630 557.5, 630 535.3 C 630 512.9, 629.9 513.0, 642.7 504.7 C 658.6 494.4, 668.7 483.8, 673.4 472.5 C 675.4 467.7, 675.0 466.4, 671.0 465.5 C 669.3 465.1, 663.0 461.5, 656.9 457.4 C 646.1 450.2, 640.3 447.6, 637.4 448.7 C 636.6 449.0, 634.8 451.5, 633.4 454.3 C 627.5 465.8, 618.8 472.1, 603.7 475.7 C 594.6 477.9, 564.6 478.2, 558.9 476.2 C 555.3 475.0, 555.3 474.8, 554.7 468.2 C 553.8 459.0, 549.2 449.8, 543.9 446.4 C 539.0 443.3, 531.7 442.4, 527.4 444.4 M 523.5 461.0 C 521.8 463.7, 533.4 466.3, 538.4 464.4 C 541.6 463.2, 540.0 461.7, 536.1 462.4 C 533.7 462.7, 530.6 462.4, 528.1 461.5 C 525.9 460.8, 523.8 460.5, 523.5 461.0 M 642 476.0 C 642 476.5, 643.4 477.7, 645.1 478.5 C 646.8 479.4, 650.1 482.2, 652.5 484.6 C 658.1 490.6, 659.4 488.5, 653.8 482.4 C 648.5 476.6, 642 473.1, 642 476.0 M 624.0 496.9 C 622.6 499.5, 622.7 504.3, 624.2 505.8 C 625.9 507.5, 629.1 507.3, 631.8 505.4 C 634.6 503.5, 634.8 501.5, 632.1 503.0 C 627.2 505.6, 624.6 503.5, 625.7 498.0 C 626.3 494.6, 625.6 494.1, 624.0 496.9 M 512.0 542.5 C 509.7 547.4, 507.8 552.3, 507.7 553.3 C 507.5 554.9, 509.1 555.7, 516.5 558.1 C 527.1 561.5, 527.4 561.5, 526.5 559.2 C 526.1 558.3, 524.0 552.5, 521.8 546.5 C 519.6 540.5, 517.5 535.1, 517.0 534.6 C 516.4 534.0, 514.4 537.2, 512.0 542.5 M 437.5 547.0 C 417.7 551.3, 402.8 564.1, 395.9 583.0 C 393.3 590.2, 392.8 592.9, 392.8 600.5 C 392.8 617.9, 400.6 634.1, 413.5 643.9 C 423.8 651.7, 431.3 654.1, 456 657.5 C 481.0 660.9, 492.0 662.8, 501.3 665.1 C 517.0 669.0, 559.8 683.8, 581.5 692.7 C 592.7 697.3, 629.0 715.1, 635.8 719.3 C 637.8 720.6, 641.0 722.2, 642.8 722.9 C 644.5 723.7, 646 724.7, 646 725.3 C 646 725.9, 646.3 726.0, 646.7 725.7 C 647.0 725.3, 647.8 725.4, 648.4 725.9 C 649.0 726.3, 653.1 728.6, 657.5 731.0 C 661.9 733.4, 667.8 736.5, 670.5 738.0 C 673.2 739.5, 682.4 744.4, 690.7 748.9 C 703.4 755.8, 720.0 766.4, 722 768.9 C 723.6 770.9, 763.2 801.1, 782 814.5 C 791.7 821.5, 809.9 835.8, 834.5 856.0 C 861.1 877.7, 884.0 895.7, 903.1 909.9 L 915.7 919.2 917.3 930.6 C 920.3 951.9, 927.4 961.6, 947.6 971.8 C 955.5 975.8, 961.7 982.7, 968.3 994.9 C 976.2 1009.6, 1002.0 1042.7, 1007.5 1045.2 C 1010.8 1046.7, 1015.5 1044.7, 1016.9 1041.2 C 1017.8 1039.0, 1017.6 1037.5, 1016.1 1033.5 C 1013.4 1026.2, 999.3 991.6, 996.0 984 C 994.4 980.4, 991.9 974, 990.5 969.7 C 989.1 965.4, 987.5 960.9, 987.0 959.7 C 986.5 958.5, 983.5 951.0, 980.4 943 C 973.0 924.1, 965.6 909.1, 957.9 898.0 C 954.5 893.0, 943.4 880.1, 933.2 869.2 C 864.7 796.3, 856.0 787.3, 808.0 738 C 788.4 717.9, 770.4 699.3, 768.0 696.7 C 765.6 694.0, 760.4 690.0, 756.6 687.8 C 752.7 685.5, 742.1 679.3, 733 674.0 C 723.9 668.7, 708.6 659.9, 699 654.5 C 689.4 649.1, 670.0 638.1, 656 630.0 C 591.7 592.9, 566.1 579.8, 533.5 567.4 C 496.6 553.3, 452.0 543.8, 437.5 547.0 M 280.2 649.8 C 267.4 676.6, 258.7 704.5, 253.8 735.2 C 251.8 747.9, 251.5 752.8, 251.6 779 C 251.7 809.9, 252.8 825.3, 257.5 862 C 269.5 954.2, 270.0 960.1, 270.0 1005.6 C 270.0 1048.5, 271.7 1080, 273.9 1080 C 274.4 1080, 275.1 1078.3, 275.5 1076.2 C 277.5 1064.6, 285.4 1045.7, 296.7 1024.8 C 304.2 1010.9, 306.7 1007.5, 316.7 997.0 C 328.0 985.1, 335.1 979.6, 349.4 971.6 C 356.0 967.9, 362.7 964.0, 364.4 962.8 C 369.1 959.6, 376 952.7, 376 951.3 C 376 950.6, 375.9 950.0, 375.8 950.0 C 375.5 950.0, 354.7 956.3, 351.1 957.4 C 347.5 958.6, 348.8 956.8, 356 950.9 C 379.3 931.8, 407.6 899.7, 415.7 883.2 C 418.9 876.9, 419.3 875, 419.3 868.7 C 419.3 860.0, 417.4 855.4, 411.2 849.2 C 406.5 844.4, 398.0 840.1, 391.9 839.3 C 389.8 839.0, 388.0 838.5, 388.0 838.1 C 388.0 837.8, 391.3 835.7, 395.3 833.6 C 421.2 819.5, 443.6 802.6, 455.4 788.1 C 476.4 762.3, 484.9 737.7, 482.1 710.8 C 480.6 695.9, 479.1 687.5, 477.6 685.5 C 476.6 684.0, 476.1 684.0, 472.5 685.6 C 466.1 688.2, 450.3 692.7, 439.3 694.9 C 407.0 701.5, 365.0 701.7, 339.4 695.4 C 318.5 690.2, 296.9 674.7, 290.2 660.0 C 288.1 655.5, 287.7 653.1, 287.7 645.8 C 287.7 641.0, 287.4 637, 287 637 C 286.6 637, 283.6 642.7, 280.2 649.8 M 681 641.1 C 681 641.6, 681.4 642, 681.8 642 C 683.3 642, 708.9 656.4, 739 674.0 C 748.1 679.4, 757.1 684.5, 759 685.5 C 760.9 686.5, 762.9 687.9, 763.3 688.6 C 763.7 689.4, 764.6 690, 765.2 690 C 765.8 690, 765.7 689.3, 764.8 688.2 C 763.9 687.3, 762.5 685.0, 761.6 683.3 C 759.2 678.5, 748.8 667.8, 741.2 662.1 C 732.4 655.7, 723.4 650.9, 713 647.2 C 700.7 642.8, 681 639.0, 681 641.1 M 494 668.4 C 494 669.2, 494.9 674.2, 496.0 679.6 C 500.6 702.0, 500.6 727.5, 495.9 747 C 494.8 751.7, 493.6 756.6, 493.3 758 C 493.1 759.4, 490.4 765.5, 487.5 771.5 C 483.0 780.8, 480.8 784.1, 473.0 792.5 C 450.0 817.5, 443.1 828.7, 437.3 850.9 C 435.2 858.8, 434.8 863.0, 434.6 874.9 C 434.5 885.0, 434.8 889.4, 435.7 889.7 C 437.5 890.3, 478.2 836.9, 548.0 742.2 C 578.3 701.0, 581.3 696.9, 580.4 696 C 576.9 692.6, 502 667, 495.6 667 C 494.7 667, 494 667.6, 494 668.4 M 580.6 702.2 C 578.9 704.6, 574.6 710.5, 571.0 715.5 C 567.4 720.5, 561.1 729, 557.0 734.5 C 515.8 790.6, 479.3 839.4, 454.9 871 C 414.6 923.3, 394.9 949.6, 380.5 970.6 C 377.0 975.7, 377.0 975.7, 366.8 978.4 C 323.5 989.6, 288.0 1029.5, 278.0 1078 C 274.9 1092.7, 275.6 1115.1, 279.4 1128.7 C 285.7 1151.4, 299.7 1168.3, 315.5 1172.4 C 333.4 1176.9, 346.1 1178.4, 369 1178.4 C 387.4 1178.5, 393.0 1178.2, 400 1176.6 C 435.2 1168.9, 457.7 1151.2, 466.2 1124.5 C 467.5 1120.6, 468.4 1114.2, 468.7 1106.2 L 469.3 1093.9 471.6 1095.5 C 476.4 1098.6, 485.0 1100.1, 491.5 1098.9 C 505.3 1096.4, 516.1 1088.9, 540.1 1065.0 C 555.2 1050.1, 557.8 1047.0, 567.2 1032.5 C 584.8 1005.7, 611 963.8, 611 962.4 C 611 962.2, 612.5 959.7, 614.4 956.8 C 624.3 941.2, 651.7 887.4, 658.9 869.2 C 659.9 866.6, 662.7 859.8, 665.0 854 C 669.0 844.1, 672.7 834.3, 679.0 817 C 684.0 803.3, 695.1 775.7, 697.5 770.9 C 700.1 765.8, 702.2 764.4, 704.0 766.5 C 704.6 767.2, 706.6 773.7, 708.5 780.9 C 715.7 808.2, 722.9 820.2, 749.0 849 C 753.8 854.2, 761.5 862.8, 766.1 868.0 C 776.7 879.8, 785.0 887.8, 796 896.7 C 805.3 904.3, 826.3 919.0, 838 926.1 C 887.2 956.1, 887.0 956.0, 902.5 966.3 C 914.6 974.4, 925.6 982.8, 935.0 991.1 C 939.3 994.9, 943.6 998.0, 944.6 998.0 C 947.4 998.0, 961 990.2, 961 988.6 C 961 987.9, 959.4 985.2, 957.5 982.8 C 954.9 979.3, 951.9 977.1, 944.9 973.5 C 934.3 968.2, 929.4 964.3, 923.7 956.8 C 918.1 949.3, 916.3 944.8, 915.0 934.5 C 914.4 929.5, 913.7 924.5, 913.4 923.3 C 913.2 921.9, 908.0 917.4, 899.2 910.9 C 880.9 897.2, 862.7 882.7, 832 857.6 C 818.0 846.1, 788.7 823.4, 767 807.2 C 745.3 791.0, 727.1 777.1, 726.7 776.4 C 726.3 775.6, 725.3 775, 724.6 775 C 723.8 775, 721.4 773.2, 719.1 771 C 716.9 768.8, 714.6 767, 714.1 767 C 713.6 767, 713.0 766.6, 712.8 766.2 C 712.2 764.8, 705.7 760.6, 694.5 754.7 C 688.5 751.4, 677.4 745.5, 670 741.5 C 662.6 737.5, 647.0 729.2, 635.5 723.0 C 608.3 708.3, 590.0 699.1, 586.4 698.5 C 583.9 698.0, 583.1 698.5, 580.6 702.2 M 697.7 812.2 C 668.6 886.1, 624.2 971.4, 585.8 1027.3 C 563.3 1060.2, 544.1 1084.6, 518.4 1113 C 496.9 1136.8, 472.4 1159.1, 461.8 1164.6 C 460.3 1165.4, 459 1166.4, 459 1166.9 C 459 1168.1, 499.8 1168.8, 718.5 1171.0 C 824.6 1172.1, 948.1 1173.5, 992.9 1174.0 C 1037.7 1174.5, 1074.6 1174.8, 1074.8 1174.5 C 1075.5 1173.8, 1076.8 1174.5, 1053.9 1163.7 C 1021.0 1148.2, 1009.4 1143.8, 990.5 1139.9 C 982.4 1138.2, 976.2 1137.7, 958 1137.5 C 938.5 1137.2, 934.6 1136.9, 928.9 1135.1 C 916.9 1131.3, 909.2 1123.4, 907.0 1112.6 C 906.5 1109.8, 905.6 1100.5, 905.1 1092 C 904.4 1079.1, 903.8 1075.3, 901.6 1069.6 C 896.7 1056.7, 889.3 1047.1, 868.6 1027 C 828.6 988.0, 816.0 975.0, 804.0 960.1 C 792.2 945.6, 771.5 918.6, 766.4 911 C 765.1 909.1, 762.6 905.4, 760.8 902.9 C 757.6 898.5, 742.1 875.5, 725.6 851 C 721.3 844.7, 714.2 832.0, 709.7 822.8 C 705.2 813.6, 701.2 806.1, 700.8 806.0 C 700.5 806.0, 699.1 808.8, 697.7 812.2 M 914 844.6 C 914 844.9, 915.9 847.0, 918.2 849.2 C 920.6 851.4, 924.8 855.9, 927.5 859.1 C 930.2 862.2, 938.4 871.1, 945.5 878.8 C 956.3 890.3, 959.8 894.9, 966.1 905.6 C 972.5 916.6, 979.3 931.2, 984.5 945 C 985.2 946.9, 987.3 952.5, 989.2 957.4 C 991.0 962.2, 993.1 966.5, 993.8 966.7 C 995.3 967.3, 999.2 964.4, 1008.4 955.8 L 1015.4 949.4 1010.9 944.5 C 976.8 906.7, 916.8 844, 914.8 844 C 914.4 844, 914 844.3, 914 844.6 M 754.1 887.7 C 767.3 911.2, 819.9 977.7, 840.1 996.4 C 848.4 1004.1, 847.7 1004.0, 862.2 998.5 C 876.8 992.9, 895.1 981.2, 892.4 979.3 C 888.5 976.5, 865.6 962.2, 856 956.6 C 808.6 929.0, 782.3 911.1, 761.8 892.8 C 753.2 885.0, 752.3 884.4, 754.1 887.7 M 1015.2 961.2 C 1013.0 964.1, 1008.3 969.8, 1004.6 973.8 C 998.5 980.6, 998.1 981.2, 999.1 983.8 C 999.8 985.3, 1001.0 988.5, 1002.0 991 C 1003.0 993.5, 1006.6 1002.2, 1010.0 1010.5 C 1019.8 1034.1, 1020 1034.7, 1020 1038.7 C 1020 1043.6, 1017.9 1046.5, 1013.5 1048.0 C 1009.7 1049.3, 1006.5 1048.7, 1003.6 1046.1 C 1000.6 1043.5, 978.8 1017.1, 974.0 1010.2 C 971.7 1006.8, 969.2 1004.0, 968.6 1004.0 C 966.2 1004.0, 947.9 1014.2, 948.3 1015.3 C 948.6 1016.4, 957.1 1022.6, 966.5 1028.7 C 972.9 1032.9, 988.3 1048.9, 992.4 1055.8 C 998.8 1066.5, 1000.1 1071.6, 1001.1 1089.7 C 1002.3 1113.4, 1004.4 1119.7, 1013.3 1126.1 C 1021.4 1132.0, 1027.8 1133.2, 1056 1134.0 C 1084.0 1134.9, 1090.3 1135.9, 1108 1142.3 C 1119.3 1146.4, 1127.9 1150.1, 1146 1158.8 C 1180.5 1175.3, 1195.3 1180.8, 1208.1 1181.7 C 1220.0 1182.6, 1224 1180.8, 1224 1174.6 C 1224 1167.4, 1212.8 1154.8, 1184 1129.5 C 1150.0 1099.7, 1131.2 1080.1, 1080.5 1022 C 1038.6 974.1, 1022.2 956, 1020.6 956 C 1019.8 956, 1017.4 958.4, 1015.2 961.2 M 889.5 986.9 C 881.0 992.8, 868.4 999.3, 859.4 1002.5 C 855.8 1003.8, 852.4 1005.2, 851.9 1005.7 C 851.4 1006.2, 856.4 1011.5, 863.6 1018.0 C 884.6 1037.2, 894.1 1048.6, 901.4 1063.2 C 906.5 1073.5, 908.0 1081.1, 908.0 1096.8 C 908.1 1117.4, 913.5 1126.7, 928.6 1132.1 C 933.7 1134.0, 937.7 1134.4, 959.5 1135.0 C 976.5 1135.5, 987.0 1136.3, 992.5 1137.4 C 1004.5 1140.0, 1022.4 1146.3, 1037.8 1153.4 C 1045.3 1156.9, 1058.9 1163.2, 1067.9 1167.4 C 1095.6 1180.3, 1113.1 1185.3, 1123.0 1183.1 C 1128.3 1181.9, 1130.3 1180.0, 1130.2 1176.2 C 1130.1 1171.2, 1126.6 1165.8, 1116.6 1155.3 C 1106.7 1144.9, 1104.2 1143.3, 1093.2 1140.4 C 1081.3 1137.3, 1069.2 1136.0, 1050.9 1136.0 C 1030.4 1136, 1022.1 1134.6, 1013.6 1129.6 C 1003.2 1123.5, 1000.2 1116.3, 999.0 1094 C 998.0 1075.7, 996.8 1069.4, 992.9 1061.9 C 985.6 1048.1, 976.0 1038.5, 955.6 1024.5 C 950.8 1021.2, 939.4 1013.0, 930.2 1006.2 C 910.2 991.5, 897.0 982.0, 896.7 982.0 C 896.6 982.0, 893.4 984.2, 889.5 986.9 M 1112 1146.9 C 1112 1147.4, 1113.6 1149.0, 1115.5 1150.4 C 1120.5 1154.2, 1129.5 1165.8, 1131.9 1171.3 L 1133.9 1176 1153.0 1176 C 1167.5 1176, 1172.0 1175.7, 1172.0 1174.8 C 1172.0 1173.5, 1159.7 1167.5, 1130 1154.3 C 1122.0 1150.8, 1114.7 1147.4, 1113.8 1146.9 C 1112.8 1146.4, 1112 1146.4, 1112 1146.9" stroke="none" fill="#000000" fill-rule="evenodd" /></svg>