<svg xmlns="http://www.w3.org/2000/svg" viewBox="0 0 1500 1500" version="1.1"><path d="M 728 255.8 C 722.6 258.1, 715.0 262.5, 706.4 268.5 C 689.0 280.7, 667.3 297.4, 657.3 306.4 C 626.5 334.3, 615.7 342.4, 603.0 347.6 C 596.6 350.2, 572.6 354, 562.6 354 C 552.6 354, 543.4 350.7, 537.9 345.0 C 535.3 342.4, 532.7 338.5, 532.0 336.4 C 530.4 331.1, 525.1 323.4, 522.2 322.1 C 518.9 320.6, 513.0 320.7, 507.9 322.5 C 504.7 323.7, 502.9 323.8, 500.6 323.0 C 496.5 321.6, 491.5 321.8, 490.1 323.4 C 489.5 324.2, 486.4 324.9, 483.0 325.2 C 478.1 325.5, 476.1 326.3, 471.4 329.5 L 465.8 333.4 460.6 330.7 C 454.8 327.7, 449.5 327.2, 446.3 329.5 C 445.1 330.4, 442.2 334.7, 439.9 339.1 C 433.6 351.1, 428.3 356.3, 413.9 364.5 C 399.7 372.5, 387.1 383.9, 383.2 392.3 L 381.0 397.1 377.7 394.7 C 366.5 386.4, 348.9 387.2, 339.6 396.6 C 330.9 405.4, 326.6 427.2, 330.5 442.5 C 332.4 449.4, 337.8 460.6, 342.3 466.5 C 345.9 471.2, 357.8 482.6, 366.1 489.3 C 374.4 496.1, 383.7 501.8, 390.2 504.1 C 393.7 505.4, 396 506.9, 396 507.7 C 396 509.8, 392.3 508.8, 383.0 504.2 C 374.1 499.8, 363.3 492.0, 352.8 482.2 C 348.5 478.2, 344.2 475.0, 343.3 475.0 C 333.5 475.1, 317.4 493.3, 311.4 511.2 C 302.1 538.4, 302.9 554.4, 315.5 592.1 C 318.0 599.6, 320 606.4, 320 607.2 C 320 608.0, 314.9 611.2, 307.8 614.7 C 285.0 626.0, 275.9 630.0, 260.5 635.1 C 257.2 636.2, 253.6 637.6, 252.5 638.1 C 248.6 639.9, 228.4 645.1, 217.5 647.1 C 211.4 648.1, 201.6 649.3, 195.5 649.6 C 184.1 650.2, 181.3 650.9, 169.5 655.8 C 156.6 661.2, 145.0 663.2, 125.5 663.3 C 108.6 663.5, 108.1 663.6, 105.6 665.9 C 102.1 669.2, 102.0 675.7, 105.3 678.8 C 108.7 682.0, 114.6 684.1, 122.1 684.7 C 125.9 685.0, 129 685.6, 129 685.9 C 129 686.3, 125.5 687.6, 121.2 689.0 C 96.1 696.8, 72.2 709.4, 62.7 720.0 C 58.2 724.8, 57.2 728.5, 59.1 731.9 C 60.4 734.2, 61.3 734.5, 66.6 734.8 C 74.2 735.2, 80.1 733.6, 97.5 726.5 C 119.5 717.6, 131.3 714.0, 148 711.0 C 165.8 707.7, 176.2 704.7, 191.0 698.3 C 210.1 690.0, 213.2 689.5, 253.5 688.0 C 267.8 687.5, 284.9 686.3, 291.5 685.5 C 303.1 684.0, 325.9 680.2, 327.0 679.5 C 327.3 679.3, 328.2 679.5, 328.9 679.9 C 329.9 680.5, 329.8 682.2, 328.6 688.3 C 326.7 697.2, 323.2 706.5, 315.4 722.8 C 302.3 750.2, 299.5 759.7, 299.6 777.5 C 299.6 788.8, 300.0 791.6, 302.3 799.2 C 307.7 816.5, 315.6 830.6, 331.7 851.5 C 340.4 862.8, 342.8 865.1, 341.6 860.8 C 337.2 845.3, 337.1 831.3, 341.3 815.5 C 346.6 796.0, 354.4 781.2, 372.9 755.6 C 377.6 749.1, 384.1 740.1, 387.4 735.7 C 400.6 717.4, 410.8 697.7, 414.3 683.4 C 416.5 674.8, 418.1 660.8, 417.5 656.3 C 417.2 654.2, 417.3 652.0, 417.7 651.4 C 418.1 650.8, 421.4 648.9, 425 647.2 C 428.6 645.5, 434.4 641.9, 437.9 639.3 C 452.4 628.4, 464.1 622.4, 479.5 617.9 C 485.3 616.3, 492.8 613.6, 496.2 612.1 C 522.1 600.3, 552.6 584.4, 585 565.7 C 601.5 556.2, 608.5 551.9, 636.5 534.2 C 664.7 516.3, 682.2 507.3, 703.7 499.5 C 712.0 496.4, 716.9 494.1, 718.2 492.5 C 720.1 490.1, 729.7 485.8, 741.7 481.9 C 746.4 480.4, 749.2 479.0, 749.5 477.9 C 749.9 476.9, 750.9 475.9, 751.8 475.6 C 773.3 469.8, 824.6 466.7, 836.2 470.6 C 847.2 474.2, 858.5 489.2, 863.5 506.6 L 866.1 515.6 862.1 524.3 C 856.0 537.6, 852.3 550.4, 850.9 562.6 C 847.3 596.8, 857.4 624.6, 884.2 653.5 C 895.0 665.2, 898.1 673.5, 896.1 685.8 C 895.1 691.8, 894.4 703.4, 894.1 718.8 L 894 724.1 888.2 723.5 C 878.1 722.4, 871.8 720.9, 858.2 716.4 C 841.5 710.9, 833.6 710.5, 825.8 714.7 C 820.2 717.7, 817.5 722.0, 815.4 731.0 C 814.0 737.3, 814.2 757.1, 815.9 766.5 C 817.9 778.0, 819.2 796.6, 818.5 804 C 818.1 808.1, 817.8 811.6, 817.8 811.7 C 817.9 811.9, 817.4 813.4, 816.9 815.2 C 813.7 826.3, 811.8 837.9, 811.3 850.5 C 810.1 881.1, 815.4 901.7, 824.3 900.8 C 829.1 900.3, 831.0 896.7, 832.5 884.9 C 833.3 879.2, 834.6 872.1, 835.5 869.1 C 838.2 860.2, 844.8 846.1, 851.2 835.5 C 867.8 808.1, 879.7 793.7, 889.8 788.6 L 895.0 786.0 895.9 788.2 C 896.4 789.5, 897.3 796.4, 898.0 803.5 C 899.5 820.0, 899.1 816.6, 903.4 850.5 C 909.4 898.8, 910.2 910.0, 910.3 942 C 910.5 976.7, 909.2 988.6, 902.9 1012.8 C 893.2 1049.7, 893.7 1046.8, 893.6 1067 C 893.5 1088.6, 894.3 1094.2, 903.1 1135.5 C 906.4 1150.9, 910.6 1170.7, 912.5 1179.5 C 922.0 1224.9, 927.4 1248.7, 928.6 1250.5 C 930.5 1253.2, 930.4 1272.6, 928.5 1285 C 927.7 1290.2, 925.9 1298.3, 924.4 1303 C 922.8 1308.2, 921.6 1315.1, 921.3 1320.8 L 920.7 1330 826.4 1330 C 774.5 1330, 732 1330.3, 732 1330.8 C 732 1331.2, 748.9 1334.4, 769.5 1338.0 C 790.2 1341.5, 807.6 1344.8, 808.3 1345.2 C 809.9 1346.2, 809.1 1346.8, 802.9 1349.0 C 786.6 1354.8, 780.4 1357.2, 779.6 1358.0 C 777.5 1360.1, 918.5 1359.1, 1009.5 1356.5 C 1032.9 1355.9, 1091.7 1353.2, 1120.8 1351.5 C 1134.7 1350.7, 1151.7 1349.7, 1158.5 1349.4 C 1165.4 1349.0, 1171 1348.4, 1171 1347.9 C 1171 1347.5, 1168.6 1346.9, 1165.8 1346.5 C 1153.5 1345.1, 1146 1343.7, 1146 1342.9 C 1146 1342.0, 1152.4 1341.3, 1165 1340.5 C 1213.0 1337.9, 1270.2 1333.1, 1271.7 1331.6 C 1272.1 1331.3, 1236.3 1331, 1192.4 1331 C 1109.3 1331, 1110 1331.0, 1110 1327.0 C 1110 1326.1, 1108.9 1324.3, 1107.6 1323.1 C 1105.6 1321.2, 1103.5 1320.8, 1093.9 1320.0 C 1072.9 1318.3, 1057.1 1312.5, 1030.1 1296.5 C 1012.5 1286.1, 1003.1 1277.9, 996.0 1266.8 C 990.5 1258.4, 988.4 1252.5, 989.8 1249.7 C 991.1 1247.2, 993.9 1208.2, 999.0 1121.5 C 1000.1 1102.8, 1002.0 1074.9, 1003.1 1059.5 C 1004.2 1044.1, 1005.1 1029.0, 1005.1 1026 C 1004.9 1009.7, 1007.7 994.9, 1016.1 967.6 C 1023.2 944.8, 1024.7 938.4, 1027.0 921.5 C 1029.1 905.7, 1030.0 901.9, 1037.5 877 C 1045.6 849.7, 1055.9 805.3, 1060.7 776.5 C 1061.3 772.6, 1062.1 771.3, 1064.0 770.3 C 1066.5 769.1, 1072.9 768.4, 1157 759.0 C 1208.8 753.2, 1229.8 750.5, 1239.5 748.5 C 1267.4 742.7, 1287.8 731.8, 1304.5 713.7 C 1328.7 687.6, 1337.4 654.6, 1328.0 624.3 C 1320.5 599.8, 1296.0 571.8, 1263.5 550.2 C 1252.7 543.1, 1228.1 530.0, 1216 525.0 C 1211.9 523.3, 1207.2 521.3, 1205.5 520.6 C 1203.8 519.8, 1198.9 517.8, 1194.5 516.2 C 1190.1 514.5, 1182.2 511.5, 1177 509.5 C 1167.2 505.7, 1159.5 502.9, 1135.5 494.2 C 1118.1 488.0, 1076.3 474.5, 1057 468.9 C 1049.0 466.6, 1041.7 464.3, 1040.7 463.8 C 1039.8 463.3, 1037.9 460.8, 1036.6 458.2 C 1035.3 455.6, 1032.6 451.2, 1030.5 448.5 C 1028.5 445.8, 1024.3 439.4, 1021.0 434.5 C 1004.4 408.9, 971.0 376.3, 927.5 343.0 C 921.5 338.4, 912.2 330.6, 907 325.7 C 889.8 309.5, 873.0 300.1, 840.8 288.4 C 832.7 285.5, 821.4 282.1, 815.8 280.9 C 803.9 278.4, 792.4 274.3, 783.6 269.3 C 763.6 257.9, 755.3 254.9, 742.5 254.4 C 734.4 254.0, 731.7 254.3, 728 255.8 M 733.9 257.4 C 729.5 258.6, 717.4 265.1, 708 271.4 C 702.5 275.1, 674 296.1, 674 296.5 C 674 296.7, 675.6 298.4, 677.5 300.3 C 680.8 303.6, 681.0 304.2, 681.0 310.1 C 681.0 317.7, 679.4 321.4, 670.9 334.6 C 667.5 339.8, 665.0 344.3, 665.2 344.6 C 665.5 344.9, 667.3 344.2, 669.1 343.1 C 676.8 338.6, 681.9 337.5, 695.5 337.5 C 707.7 337.5, 708.8 337.7, 714.2 340.3 C 725.6 345.9, 740.8 362.6, 748.5 378 C 755.6 392.2, 758.6 403.5, 760.1 421.5 C 761.2 435.2, 762.3 439.4, 765.3 441.5 C 768.6 443.8, 770.6 443.3, 774.9 439.5 C 781.4 433.6, 788.3 417.6, 794.0 395.0 C 797.7 380.4, 798.8 381.7, 796.0 397.5 C 794.0 408.2, 792 425.3, 792 430.8 C 792 438.1, 794.5 444.8, 797.5 445.6 C 798.8 445.9, 801.2 445.4, 802.9 444.5 C 809.3 441.2, 820.6 423.9, 827.1 407.5 C 830.1 399.9, 832.0 396.4, 832.0 398.6 C 832.0 399.1, 831.1 404.2, 830.0 410 C 824.1 441.5, 824.1 442.4, 829.9 445.4 C 832.6 446.9, 833.1 446.8, 839.1 443.8 C 843.9 441.4, 848.5 437.6, 857.6 428.5 C 864.3 421.8, 871.8 413.5, 874.3 410.1 C 883.5 397.6, 903.3 358.0, 909.6 339.3 C 911.1 335.0, 911.1 334.9, 908.0 331.0 C 903.3 325.0, 890.1 314.9, 879.2 308.9 C 868.3 302.8, 849.5 295.0, 837.4 291.5 C 828.2 288.8, 815.6 287.3, 814.7 288.7 C 814.4 289.2, 814.7 293.2, 815.5 297.6 C 817.1 306.5, 817.5 321, 816.1 321 C 815.6 321, 814.9 319.3, 814.5 317.3 C 813.6 312.6, 806.9 299.0, 802.4 292.9 C 786.7 271.4, 750.7 252.8, 733.9 257.4 M 666.8 302.7 C 665.0 304.2, 658.5 309.8, 652.4 315.2 C 624.1 339.9, 613.7 347.4, 603.5 350.9 C 597.8 352.8, 579.0 356, 573.8 356 C 571.2 356, 555.3 365.4, 550.9 369.6 C 549.5 371.0, 547.2 374.3, 545.9 377.0 C 544.6 379.7, 543.3 381.9, 543.0 382.0 C 542.7 382.0, 541.9 379.0, 541.2 375.2 C 539.7 366.3, 532.3 344.5, 527.4 334.5 C 522.2 323.8, 519.7 322.4, 510.7 325.2 C 505.5 326.8, 503.8 326.9, 499.8 326.0 C 497.2 325.3, 494.1 325.1, 492.9 325.5 C 491.0 326.1, 490.9 326.7, 491.5 329.9 C 492.6 335.5, 492.6 336.5, 491.6 337 C 491.1 337.3, 490.4 336.8, 490.0 336 C 486.7 328.8, 486.4 328.5, 483.1 328.2 C 480.6 327.9, 478.3 328.8, 473.6 331.9 C 470.2 334.2, 466.5 336, 465.6 336 C 464.6 336, 461.1 334.7, 457.9 333.0 C 450.0 329.0, 448.2 329.9, 443.3 339.9 C 437.6 351.5, 429.5 359.3, 414.2 368.3 C 400.6 376.3, 391.9 383.7, 387.7 391 C 382.5 400.1, 383.3 405.4, 389.1 400.0 C 393.6 395.8, 402.9 391.2, 409.4 389.9 C 418.6 388.0, 423.3 390.3, 430.2 400.3 L 431.9 402.7 439.2 400.9 C 451.4 397.8, 461.1 398.8, 454.1 402.4 C 450.8 404.2, 447.5 409.0, 446.6 413.6 C 445.7 417.5, 447.6 422.4, 451.9 427.2 C 460.8 437.3, 473.1 434.8, 480.9 421.2 L 484.5 414.9 489.8 415.4 C 500.8 416.4, 514.7 425.7, 522.3 437.3 C 526.4 443.6, 527.9 447.8, 528.8 456.2 C 529.5 462.5, 529.5 462.5, 532.5 462.2 C 536.4 461.8, 552.9 457.3, 555.8 455.7 C 557.1 455.1, 563.9 447.8, 570.8 439.5 C 589.8 417.0, 606.3 399.7, 621.7 386.0 C 642.4 367.6, 653.3 355.3, 666.0 336 C 677.0 319.2, 679.9 311.2, 676.9 304.7 C 676.0 302.7, 672.3 300, 670.5 300 C 670.3 300, 668.7 301.2, 666.8 302.7 M 686.5 340.0 C 673.8 342.7, 663.5 349.1, 650.7 362.4 C 638.0 375.5, 638.9 374.6, 623.6 388.1 C 606.9 403.0, 590.7 419.7, 577.5 436.2 C 554.6 464.4, 538.3 480.9, 517.9 496.1 C 509.5 502.4, 493.7 514.2, 483 522.2 C 472.3 530.2, 461.0 539.0, 457.9 541.7 C 454.8 544.3, 447.1 550.5, 440.9 555.5 C 434.7 560.5, 424.1 569.0, 417.5 574.6 L 405.3 584.7 391.9 587.3 C 364.9 592.6, 362.8 593.2, 349.6 598.2 C 341.4 601.2, 322.0 610.7, 308.3 618.3 C 297.3 624.3, 270.2 635.5, 252.5 641.2 C 230.2 648.5, 220.0 650.5, 193.5 652.9 C 183.5 653.8, 180.5 654.6, 170 659.3 C 160.6 663.5, 149.1 665.3, 131 665.6 C 110.7 666.0, 108.4 666.4, 106.4 670.1 C 102.3 678.1, 114.9 683, 139.8 683 C 152.4 683, 155.9 684.2, 146.8 685.4 C 137.6 686.6, 112.0 694.8, 98.5 700.8 C 89.8 704.7, 76.0 712.6, 72 715.9 C 70.6 717.0, 68.1 719.1, 66.3 720.6 C 64.6 722.0, 62.6 724.6, 61.9 726.2 C 60.7 729.0, 60.8 729.5, 63.0 731.2 C 67.1 734.5, 73.1 732.9, 104 720.7 C 122.2 713.5, 127.2 712.0, 140.5 709.5 C 164.1 705.2, 174.8 702.2, 188.3 696.0 C 206.0 688.0, 210.3 687.2, 243.1 686.0 C 284.8 684.5, 302.5 682.2, 343.5 673.0 C 351.5 671.2, 377.9 662.9, 391.5 657.8 C 405.5 652.6, 405.5 652.6, 413.1 644.8 C 417.3 640.6, 421.7 635.1, 422.9 632.5 C 424.0 630.0, 425.3 628, 425.6 628 C 425.9 628, 427.1 629.2, 428.3 630.6 C 432.5 636.0, 438.4 636.8, 442.0 632.5 C 443.8 630.4, 459.4 621.8, 466 619.3 C 469.0 618.2, 475.6 616.0, 480.5 614.5 C 491.1 611.3, 520.9 597.4, 542.4 585.8 C 550.7 581.3, 559.4 576.6, 561.7 575.4 C 564.0 574.2, 568.3 571.2, 571.2 568.8 C 574.1 566.4, 580.8 561.3, 586 557.5 C 644.3 515.3, 644.3 515.4, 647.5 499.8 C 648.9 493.1, 648.9 490.9, 647.7 480.9 C 646.0 467.0, 646.1 464.1, 648.9 456.8 C 651.8 449.4, 653.6 449.3, 654.5 456.5 C 655.5 464.8, 661.9 476.8, 668.3 482.6 C 677.2 490.7, 690.4 495.5, 701.7 494.8 C 707.8 494.5, 709.4 494.0, 715.7 489.9 C 719.6 487.4, 726.4 484.1, 730.7 482.6 C 748.5 476.4, 746.7 477.4, 747.9 472.1 C 750.6 459.4, 751.3 452.2, 751.3 437.5 C 751.3 418.7, 748.9 402.8, 743.6 386.6 C 735.2 361.2, 725.0 347.6, 710 341.9 C 703.9 339.6, 692.6 338.6, 686.5 340.0 M 910.6 346.2 C 894.6 387.7, 869.5 428.4, 840.6 459.7 C 832.4 468.6, 836.0 470.0, 855.6 465.5 C 871.4 461.9, 895.3 455.0, 899.2 452.9 C 900.2 452.4, 902.0 452, 903.2 452 C 904.7 452, 903.2 453.5, 897.7 457.3 C 887.0 464.6, 878.3 472.5, 874.9 477.9 C 871.4 483.3, 871.3 484.3, 874.2 487.1 C 876.3 489.0, 877.2 489.2, 884.5 488.6 C 888.9 488.3, 893.5 487.7, 894.8 487.4 C 899.7 486.0, 896.5 488.9, 887.9 493.4 C 878.1 498.6, 873.1 502.9, 870.1 508.8 C 868.1 512.7, 868.6 516.5, 871.3 517.6 C 872.6 518.1, 884.7 517.0, 901.1 515.1 C 919.7 512.8, 944.0 505.9, 963.7 497.3 C 982.5 489.1, 1012.9 470.0, 1014.7 465.3 C 1015.5 463.2, 1005.1 442.3, 995.9 427.4 C 980.6 402.8, 961.2 381.5, 935 360.5 C 926.7 353.8, 921.3 348.6, 918.8 345.0 C 916.8 342.0, 914.8 339.4, 914.3 339.3 C 913.8 339.1, 912.1 342.2, 910.6 346.2 M 429.2 365.5 C 426.4 367.5, 426.1 372.6, 428.9 373.5 C 432.8 374.7, 439.5 369.9, 438.8 366.3 C 438.4 363.9, 432.3 363.4, 429.2 365.5 M 414.5 373.0 C 413.5 374.7, 415.0 380.3, 417.3 382.8 C 418.6 384.2, 420.5 385, 422.7 385 C 426.1 385, 427.2 383.7, 424.5 382.7 C 423.7 382.3, 422.1 379.9, 420.8 377.3 C 418.6 372.6, 415.9 370.8, 414.5 373.0 M 456 422.0 C 456 422.5, 457.5 423.6, 459.4 424.4 C 461.2 425.2, 463.1 426.3, 463.4 426.9 C 463.8 427.5, 464.6 427.8, 465.1 427.5 C 466.8 426.4, 466.0 424.4, 463.1 422.7 C 459.9 420.8, 456 420.4, 456 422.0 M 537.6 464.4 L 529.7 466.5 527.5 475.1 C 526.3 479.9, 525.0 484.2, 524.6 484.9 C 523.4 486.8, 525.6 486.1, 529.6 483.2 C 533.6 480.2, 551 463.5, 551 462.5 C 551 461.5, 545.4 462.3, 537.6 464.4 M 1023.0 463.7 C 1021.6 464.7, 1017.1 468.2, 1013 471.5 C 1000.2 481.7, 987.2 489.5, 956.5 505.1 C 917.3 525.0, 895.5 533.6, 869.7 539.5 C 864.3 540.7, 859.4 542.2, 858.8 542.8 C 856.7 544.9, 854.0 558.6, 853.4 570 C 851.7 600.9, 862.8 626.2, 890.8 655.9 C 898.2 663.8, 903.7 668.6, 907.8 671 C 911.2 672.9, 914.0 674.8, 914.0 675.1 C 914.0 675.5, 912.6 676.3, 911.0 677.0 C 907.1 678.6, 903.4 683.1, 902.0 687.8 C 900.0 694.5, 898.1 733.8, 898.5 757.5 C 898.9 781.1, 903.1 828.3, 907.5 859 C 909.8 874.9, 912.0 900.3, 913.0 921.8 C 913.9 940.8, 914.0 941.3, 917.0 946.6 C 923.2 957.4, 930.8 961.7, 945 962.3 L 950.5 962.5 942 966.8 C 931.0 972.3, 921.3 979.6, 916.3 986.2 C 911.3 993.0, 910.7 994.5, 906.4 1012 C 904.4 1020.0, 902.1 1029.0, 901.3 1032 C 896.8 1048.7, 895.8 1056.1, 896.3 1072 C 896.9 1091.0, 897.8 1096.3, 912.5 1164.5 C 918.9 1194.2, 924.8 1221.9, 925.6 1226 C 928.5 1240.9, 930.2 1246.8, 931.8 1247.5 C 932.6 1247.8, 939.0 1248.6, 945.9 1249.2 C 958.1 1250.2, 958.7 1250.2, 963.2 1248.0 C 972.2 1243.8, 977.4 1235.2, 980.3 1220 C 981.9 1211.6, 982.6 1202.5, 987.5 1120.5 C 988.9 1097.4, 990.7 1069.7, 991.5 1059 C 992.3 1048.3, 993.3 1032.5, 993.6 1024 C 994.2 1009.2, 995.9 998.1, 999.4 986 C 1000.3 983.0, 1001.7 977.7, 1002.4 974.2 C 1003.6 968.6, 1003.6 967.7, 1002.1 965.9 L 1000.5 963.9 988.7 966.8 C 982.3 968.4, 977 969.5, 977 969.1 C 977 968.7, 978.2 967.7, 979.8 966.8 C 990.2 960.6, 1006.7 940.6, 1010.9 929 C 1011.6 927.1, 1014.1 918.1, 1016.5 909 C 1018.9 899.9, 1023.1 884.6, 1025.9 875 C 1032.6 852.3, 1037.2 833.9, 1042.1 811 C 1044.2 800.8, 1046.5 790.0, 1047.1 787 C 1047.8 784.0, 1049.5 776.5, 1051.1 770.5 C 1056.2 749.9, 1055.9 745.4, 1048.7 735.4 C 1041.1 724.8, 1015.9 706.5, 997.5 698.0 C 991.6 695.3, 997.8 695.8, 1017.2 699.5 C 1038.2 703.6, 1041.1 703.6, 1049.7 699.4 C 1054.1 697.3, 1055.3 696.1, 1057.4 691.7 C 1061.0 684.1, 1063.4 659.3, 1062.8 634.3 C 1062.3 613.6, 1061.4 609.5, 1054.8 599.4 C 1051.2 593.8, 1037.0 579.3, 1029.3 573.3 C 1019.6 565.7, 1027.6 565.5, 1039.5 573.1 C 1051.0 580.3, 1055.7 581.3, 1058.1 576.9 C 1059.8 573.7, 1052.7 534.5, 1047.3 517.5 C 1042.1 500.7, 1027.0 462, 1025.8 462 C 1025.6 462, 1024.3 462.8, 1023.0 463.7 M 1046 476.4 C 1046 476.6, 1047.5 480.8, 1049.4 485.7 C 1057.8 507.9, 1063.3 529.3, 1067.4 556 C 1071.2 581.2, 1072.1 592.0, 1072.6 624 C 1072.9 640.2, 1073.3 654.5, 1073.5 655.6 C 1074.1 658.2, 1076.4 659.2, 1090 662.4 C 1133.1 672.7, 1167.9 677.1, 1207.5 677.4 C 1220.3 677.5, 1228.6 677.9, 1228.8 678.5 C 1229.5 681.1, 1149.0 683.0, 1123 681.1 C 1108.2 679.9, 1076.1 676.2, 1074.9 675.4 C 1073.1 674.3, 1072.1 678.7, 1071.1 692 C 1069.6 711.3, 1066.4 739.7, 1064.1 754.5 C 1063.1 761.1, 1062.3 766.6, 1062.4 766.6 C 1062.4 766.7, 1077.6 765.0, 1096 762.9 C 1114.4 760.8, 1147.7 757.0, 1170 754.5 C 1229.9 747.8, 1244.2 745.3, 1261.2 738.8 C 1283.1 730.5, 1295.4 720.5, 1307.6 701.5 C 1322.2 678.5, 1327.3 643.7, 1316.9 637.2 C 1313.1 634.8, 1307.2 635.0, 1301.4 637.5 C 1298.4 638.8, 1296 639.6, 1296 639.3 C 1296 638.9, 1296.9 636.8, 1297.9 634.6 C 1301.6 626.9, 1303.1 621.5, 1303.7 613.8 C 1304.2 606.5, 1304.1 605.6, 1301.2 599.7 C 1296.3 589.8, 1277.8 572.4, 1258.5 559.3 C 1241.9 548.1, 1202.3 527.7, 1189.0 523.4 C 1176.9 519.5, 1174.0 521.5, 1174.0 534.3 C 1173.9 545.7, 1168.4 569, 1165.8 569 C 1165.2 569, 1165.1 567.9, 1165.5 566.3 C 1166.7 561.6, 1166.1 544.2, 1164.5 537.2 C 1162.8 529.6, 1158.6 518.9, 1155.7 514.7 C 1153.7 511.8, 1143.9 506.4, 1135.5 503.7 C 1132.8 502.8, 1119.7 498.4, 1106.5 493.9 C 1066.9 480.7, 1046 474.6, 1046 476.4 M 347.8 513.2 C 338.0 522.4, 334.5 540.8, 339.0 558.6 C 341.2 567.4, 349.6 591.0, 351.1 592.4 C 352.7 594.1, 353.4 592.1, 352.2 588.7 C 351.6 587.0, 349.9 582.1, 348.4 578 C 341.2 557.3, 339.4 547.1, 341.0 536.2 C 342.4 527.0, 345.2 520.6, 349.8 515.8 C 352.4 513.1, 353.1 511.7, 352.3 510.9 C 351.6 510.2, 350.2 510.8, 347.8 513.2 M 466 522.4 C 456.9 523.7, 456 524.3, 456.0 528.3 C 456.0 530.1, 454.7 534.3, 453.1 537.7 L 450.2 543.9 454.9 540.2 C 463.6 533.5, 478 521.8, 478 521.4 C 478 520.8, 474.6 521.1, 466 522.4 M 393.4 551.9 C 387.7 560.5, 382.7 582.5, 386.0 584.5 C 387.9 585.7, 389.0 583.1, 389.0 577.5 C 389.0 570.6, 391.5 561.6, 395.0 555.3 C 396.7 552.4, 398 549.6, 398 549.0 C 398 546.9, 395.9 548.2, 393.4 551.9 M 837.6 716.0 C 834.0 717.1, 828.5 722.3, 827.1 725.9 C 823.7 735.0, 823.7 746.2, 827.1 773.0 C 829.8 794.6, 829.4 806.2, 825.2 823 C 820.7 841.0, 819.5 854.3, 820.9 870.0 C 822.1 882.8, 824.5 893.0, 826.6 893.7 C 828.2 894.2, 828.8 892.2, 830.1 881.7 C 832.3 862.9, 839.8 846.1, 859.0 817.2 C 872.1 797.3, 879.0 790.1, 889.8 784.8 L 896.1 781.7 895.5 774.1 C 895.1 769.9, 894.5 757.7, 894.1 747 L 893.5 727.5 887 726.8 C 878.1 725.9, 872.5 724.6, 858.5 720.1 C 844.2 715.4, 841.4 714.9, 837.6 716.0 M 934.0 1251.8 C 933.4 1252.0, 933.0 1256.7, 933.0 1263.3 C 933.0 1277.3, 930.9 1292.9, 927.6 1304 C 926.2 1308.7, 924.8 1316.1, 924.4 1320.5 C 923.9 1327.7, 924.1 1328.9, 926.2 1333.0 C 928.0 1336.2, 930.0 1338.1, 933.5 1340.0 C 941.5 1344.1, 951.2 1344.0, 977.1 1339.5 C 1001.9 1335.1, 1018.4 1334.5, 1030.5 1337.3 C 1034.3 1338.1, 1042.4 1339.4, 1048.3 1340.0 C 1065.9 1341.9, 1090.9 1338.7, 1101.9 1333.1 C 1106.6 1330.7, 1107.3 1329.7, 1106.5 1327.1 C 1105.7 1324.6, 1101.0 1323.0, 1094.6 1323.0 C 1072.7 1323.0, 1041.6 1310.1, 1014.3 1289.8 C 1000.5 1279.5, 991.3 1268.5, 987.1 1257 L 985.0 1251.5 960.0 1251.5 C 946.3 1251.5, 934.6 1251.7, 934.0 1251.8" stroke="none" fill="#000000" fill-rule="evenodd" /></svg>